<?xml version="1.0" encoding="UTF-8"?>
<svg id="_圖層_2" data-name="圖層 2" xmlns="http://www.w3.org/2000/svg" xmlns:xlink="http://www.w3.org/1999/xlink" viewBox="0 0 364 65.64">
  <defs>
    <clipPath id="clippath">
      <rect x="6.57" width="21.42" height="46.64" fill="none"/>
    </clipPath>
    <clipPath id="clippath-1">
      <path d="M15.07,10.04v26.16c0,4.05-.98,6.34-5.35,6.34-1.28,0-2.27-.2-3.03-.58,1.04,2.29,2.91,3.8,5.71,4.34,4.86-.91,7.04-4.45,7.04-9.8V10.34c0-4.05,.98-6.34,5.35-6.34,1.28,0,2.27,.2,3.03,.58-1.04-2.29-2.91-3.79-5.71-4.34-4.86,.91-7.04,4.45-7.04,9.8" fill="none"/>
    </clipPath>
    <linearGradient id="_未命名漸層_20" data-name="未命名漸層 20" x1="-422.13" y1="-1947.86" x2="-421.78" y2="-1947.86" gradientTransform="translate(-259336.93 56290.52) rotate(90) scale(133.35 133.15)" gradientUnits="userSpaceOnUse">
      <stop offset="0" stop-color="#7d7d7d"/>
      <stop offset=".2" stop-color="gray"/>
      <stop offset=".54" stop-color="#949595"/>
      <stop offset=".96" stop-color="#bbbcbd"/>
      <stop offset="1" stop-color="#bfc0c1"/>
    </linearGradient>
    <clipPath id="clippath-2">
      <rect x="30.07" y="21.08" width="19.69" height="25.57" fill="none"/>
    </clipPath>
    <clipPath id="clippath-3">
      <path d="M34.51,21.27c-.93,1.68-2.37,2.88-4.37,3.5v.49h9.72c4.37,0,5.35,2.3,5.35,6.34v4.59c0,4.05-.98,6.34-5.35,6.34-1.28,0-2.27-.2-3.03-.58,1.04,2.29,2.91,3.8,5.71,4.34,4.86-.91,7.04-4.45,7.04-9.8v-5.19c0-6.25-2.97-10.04-9.72-10.04h-5.35Z" fill="none"/>
    </clipPath>
    <linearGradient id="_未命名漸層_19" data-name="未命名漸層 19" x1="-407.71" y1="-1948.24" x2="-407.37" y2="-1948.24" gradientTransform="translate(-140907.46 29562.16) rotate(90) scale(72.45 72.35)" gradientUnits="userSpaceOnUse">
      <stop offset="0" stop-color="gray"/>
      <stop offset=".23" stop-color="#888"/>
      <stop offset=".6" stop-color="#9fa0a0"/>
      <stop offset="1" stop-color="#bfc0c1"/>
    </linearGradient>
  </defs>
  <g id="_圖層_1-2" data-name="圖層 1">
    <g>
      <g id="surface1">
        <path d="M11.16,53.98H102.88v.37H11.16v-.37Z" fill="#595757"/>
        <path d="M14.62,58.45h-3.47v.51h1.48v6.68h.51v-6.68h1.48v-.51Z" fill="#595757"/>
        <path d="M40.9,58.45h-3.47v.51h1.48v6.68h.51v-6.68h1.48v-.51Z" fill="#595757"/>
        <path d="M23.55,58.96v-.51h-1.92c-.53,0-.96,.43-.96,.97v5.25c0,.53,.43,.97,.96,.97h1.92v-.51h-1.92c-.25,0-.46-.21-.46-.46v-2.27h2.38v-.51h-2.38v-2.48c0-.26,.21-.46,.46-.46h1.92Z" fill="#595757"/>
        <path d="M55.01,58.96v-.51h-1.92c-.53,0-.97,.43-.97,.97v5.25c0,.53,.44,.97,.97,.97h1.92v-.51h-1.92c-.25,0-.46-.21-.46-.46v-2.27h2.38v-.51h-2.38v-2.48c0-.26,.21-.46,.46-.46h1.92Z" fill="#595757"/>
        <path d="M60.16,58.45h.51v7.19h-.51v-7.19Z" fill="#595757"/>
        <path d="M97.55,58.45h.51v7.19h-.51v-7.19Z" fill="#595757"/>
        <path d="M31.43,58.96v-.51h-1.92c-.53,0-.97,.43-.97,.97v6.22h.51v-3.23h2.38v-.51h-2.38v-2.48c0-.26,.21-.46,.46-.46h1.92Z" fill="#595757"/>
        <path d="M35.65,58.45v5.46c0,.68-.55,1.22-1.22,1.22s-1.22-.55-1.22-1.22v-5.46h-.51v5.46c0,.96,.77,1.73,1.73,1.73s1.73-.77,1.73-1.73v-5.46h-.51Z" fill="#595757"/>
        <path d="M50.61,60.75v-.64c0-.92-.74-1.66-1.66-1.66h-1.73v7.19h.5v-3.23h1.23c.64,0,1.15,.51,1.15,1.15v2.08h.51v-2.08c0-.59-.31-1.11-.78-1.4,.47-.29,.78-.81,.78-1.4m-.51,0c0,.64-.51,1.15-1.15,1.15h-1.23v-2.94h1.23c.64,0,1.15,.52,1.15,1.15v.64Z" fill="#595757"/>
        <path d="M84.1,60.75v-.64c0-.92-.74-1.66-1.66-1.66h-1.73v7.19h.5v-3.23h1.23c.64,0,1.15,.51,1.15,1.15v2.08h.5v-2.08c0-.59-.31-1.11-.78-1.4,.47-.29,.78-.81,.78-1.4m-.5,0c0,.64-.52,1.15-1.15,1.15h-1.23v-2.94h1.23c.64,0,1.15,.52,1.15,1.15v.64Z" fill="#595757"/>
        <path d="M45.12,58.45v5.46c0,.68-.55,1.22-1.22,1.22s-1.22-.55-1.22-1.22v-5.46h-.51v5.46c0,.96,.77,1.73,1.73,1.73s1.73-.77,1.73-1.73v-5.46h-.51Z" fill="#595757"/>
        <path d="M75.74,60.18v3.73c0,.96,.77,1.73,1.73,1.73s1.73-.77,1.73-1.73v-3.73c0-.96-.77-1.73-1.73-1.73s-1.73,.77-1.73,1.73m.51,3.73v-3.73c0-.68,.55-1.22,1.22-1.22s1.22,.55,1.22,1.22v3.73c0,.68-.55,1.22-1.22,1.22s-1.22-.55-1.22-1.22" fill="#595757"/>
        <path d="M18.65,58.45v3.45h-2.16v-3.45h-.51v7.19h.51v-3.23h2.16v3.23h.51v-7.19h-.51Z" fill="#595757"/>
        <path d="M88.68,58.45h-3.47v.51h1.48v6.68h.51v-6.68h1.48v-.51Z" fill="#595757"/>
        <path d="M102.88,58.45h-3.47v.51h1.48v6.68h.5v-6.68h1.48v-.51Z" fill="#595757"/>
        <path d="M92.54,58.45v3.45h-2.16v-3.45h-.51v7.19h.51v-3.23h2.16v3.23h.51v-7.19h-.51Z" fill="#595757"/>
        <path d="M63.74,65.64c-.95,0-1.72-.77-1.72-1.73h.51c0,.67,.55,1.22,1.22,1.22s1.22-.55,1.22-1.22c0-.59-.44-1.13-1.34-1.65-1.08-.61-1.6-1.3-1.6-2.09,0-.95,.77-1.73,1.72-1.73s1.72,.77,1.72,1.73h-.51c0-.67-.55-1.22-1.22-1.22s-1.22,.55-1.22,1.22c0,.6,.44,1.13,1.34,1.65,1.08,.61,1.6,1.3,1.6,2.09,0,.95-.77,1.73-1.72,1.73" fill="#595757"/>
        <path d="M73.88,58.45l-.9,5.62-.86-5.36c-.02-.14-.15-.25-.29-.25s-.27,.11-.29,.25l-.86,5.36-.9-5.62h-.51l1.11,6.94c.02,.14,.15,.25,.29,.25s.27-.11,.29-.25l.86-5.36,.86,5.36c.02,.14,.15,.25,.29,.25s.27-.11,.29-.25l1.11-6.94h-.51Z" fill="#595757"/>
        <path d="M113.96,44.02c-1.22-1.62-3.31-2.28-5.26-1.72-.79,.23-1.72,.35-2.78,.35-6.04,0-7.38-3.86-7.38-9.21v-4.6c0-5.35,1.35-9.21,7.38-9.21,1.07,0,1.99,.12,2.78,.35,1.94,.56,4.04-.1,5.25-1.72l.07-.09c-1.92-1.57-4.6-2.43-8.11-2.43-8.22,0-11.84,4.61-11.84,12.23v6.32c0,7.62,3.62,12.23,11.84,12.23,3.51,0,6.2-.85,8.11-2.43l-.07-.09Z" fill="#ac2d0b"/>
        <path d="M94.7,44.02c-1.22-1.62-3.31-2.28-5.25-1.72-.79,.23-1.72,.35-2.78,.35-6.04,0-7.38-3.86-7.38-9.21v-4.6c0-5.35,1.35-9.21,7.38-9.21,1.07,0,1.99,.12,2.78,.35,1.94,.56,4.04-.1,5.25-1.72l.07-.09c-1.92-1.57-4.6-2.43-8.11-2.43-8.22,0-11.84,4.61-11.84,12.23v6.32c0,7.62,3.62,12.23,11.84,12.23,3.51,0,6.2-.85,8.11-2.43l-.07-.09Z" fill="#ac2d0b"/>
        <path d="M49.58,21.27h10.66v25.27c2.46,0,4.46-2,4.46-4.47V21.27h2.96c2.46,0,6.46-.71,8.93-4.47h-22.54c-2.46,0-4.46,2-4.46,4.47" fill="#ac2d0b"/>
        <g clip-path="url(#clippath)">
          <g clip-path="url(#clippath-1)">
            <path d="M6.69,.23H27.82V46.3H6.69V.23Z" fill="url(#_未命名漸層_20)"/>
          </g>
        </g>
        <path d="M24.79,0c-.78,0-1.5,.05-2.18,.15,5.21,.76,7.53,4.36,7.53,9.89v4.89c0,4.05-.98,6.34-5.35,6.34H9.72C2.97,21.27,0,25.06,0,31.31v5.19c0,6.25,2.97,10.04,9.72,10.04,.78,0,1.5-.05,2.18-.15-5.21-.76-7.53-4.36-7.53-9.89v-4.89c0-4.05,.98-6.34,5.35-6.34h15.07c6.75,0,9.72-3.79,9.72-10.04v-5.19c0-6.25-2.97-10.04-9.72-10.04" fill="#ac2d0b"/>
        <path d="M34.51,36.5v-11.24h-4.37v11.24c0,6.25,2.97,10.04,9.72,10.04,.78,0,1.5-.05,2.18-.15-5.21-.76-7.54-4.36-7.54-9.89" fill="#ac2d0b"/>
        <g clip-path="url(#clippath-2)">
          <g clip-path="url(#clippath-3)">
            <path d="M30.14,21.27h19.44v25.03H30.14V21.27Z" fill="url(#_未命名漸層_19)"/>
          </g>
        </g>
      </g>
      <g>
        <g>
          <path d="M200.2,31.41v-7.71l-.26-.26-.26-.26-.26-.26-.13-.39V11.48l-.39-.39-.39-.39-.39-.39-.39-.39V4.66l-.13-.26-.13-.26-.13-.26-.13-.26v-1.54l-.51-.39-.51-.39-.51-.39-.39-.26-.39,.39-.39,.39-.39,.39-.39,.39v1.54l-.26,.26-.26,.26-.26,.26-.26,.26v5.66l-.39,.39-.39,.39-.39,.39-.39,.39v14.4h-1.16v-.51l-.64-.13-.64-.13-.64-.13-.64-.13v-2.57l-1.16-.39-1.16-.39-1.16-.39-1.29-1.67-1.54,.39-1.54,.39-1.67,.39-1.54,.39v2.06l-.39,.26-.26,.13-.39,.13-.26,.13v1.54h-1.54v2.06l-.9-.13-.77,.26-.77,.26-.77,.26-.77-.26-.77-.26-.77-.26-.77-.26-1.54,.39-1.54,.39-1.54,.39-1.54,.39v2.57h-1.8v1.54h44.74v-1.54h-3.86v-.13Zm-13.89-7.59l-.26-.13h-.39l-.26-.13-.26-.13v8.1h-2.06v-9.77l.9,.26,.9,.26,.9,.26,.9,.26v1.03h-.39Zm2.57,7.71h-2.57v-6.17l.64,.13,.64,.13,.64,.13,.64,.13v5.66Zm10.03,0h-.64v-6.69l-.26-.26-.26-.26-.26-.26-.26-.26V11.74l-.13-.26-.13-.26-.13-.26h-.51V5.82l-.26-.26-.13-.39-.26-.26-.26-.26V2.09h.64v2.44l.26,.26,.26,.26,.26,.26,.26,.26v5.66l.26-.26,.13,.26,.13,.26,.13,.26v11.83l.26,.26,.26,.26,.26,.26,.26,.26v6.94h.13Z" fill="#d81804"/>
          <path d="M202.9,39.89v-6.3h-1.54v5.14l-3.34,1.03-3.34,1.03-3.34,1.03-3.34,1.03v5.14l-1.29,.51-1.29,.51-1.29,.51-1.29,.51v-15.43h16.84v-1.54h-38.57v6.17l-1.67,.26-1.67,.26-1.67,1.16-1.67,.26,6.81,4.37,6.81,4.37,6.81,4.37,6.94,4.24,7.07-4.37,7.07-4.37,7.07-4.37,7.07-4.37-1.93-.39-1.54-.13-1.93-.39-1.8-.26Zm-44.36,2.06l.64-.13h.64l.64-.13,.64-.13v1.03l5.14,2.57,5.14,2.57,5.14,2.57,5.14,2.57,5.27-2.44,5.27-2.44,5.27-2.44,5.27-2.44v-1.8l.77,.13,.77,.13,.77,.13,.77,.13-5.79,3.86-6.04,3.73-6.04,3.73-6.04,3.73-5.79-3.73-5.91-3.73-5.79-3.73-5.91-3.73Z" fill="#d81804"/>
          <path d="M199.3,5.31q-.13,0,0,0-.13,0,0,0-.13,0,0,0-.13,0,0,0v2.06c1.03,.64,2.06,1.41,2.96,2.19,.9,.77,1.8,1.54,2.7,2.44,.9,.9,1.67,1.8,2.31,2.83,.77,1.03,1.41,1.93,2.06,3.09s1.29,2.31,1.8,3.6c.51,1.29,.9,2.44,1.29,3.73s.64,2.57,.77,3.99c.13,1.29,.26,2.7,.26,3.99,0,4.24-.9,8.23-2.44,11.83-1.54,3.6-3.73,6.94-6.56,9.64-2.7,2.7-6.04,5.01-9.64,6.56-3.6,1.54-7.59,2.44-11.83,2.44s-8.23-.9-11.83-2.44c-3.6-1.54-6.94-3.73-9.64-6.56-2.83-2.96-5.14-6.3-6.69-9.9-1.54-3.6-2.44-7.59-2.44-11.83s.9-8.23,2.44-11.83c1.54-3.73,3.86-6.94,6.56-9.77,2.7-2.7,6.04-5.01,9.64-6.56,3.6-1.54,7.59-2.44,11.83-2.44,.77,0,1.41,0,2.19,.13,.77,0,1.41,.13,2.19,.26s1.41,.26,2.19,.39,1.41,.39,2.06,.51h.51v-1.41h0c-.77-.26-1.41-.39-2.19-.51s-1.54-.26-2.31-.39c-.77-.13-1.54-.26-2.31-.26s-1.54-.13-2.31-.13c-4.37,0-8.61,.9-12.47,2.57-3.86,1.67-7.33,3.99-10.16,6.81-2.83,2.83-5.27,6.3-6.81,10.16-1.67,3.86-2.57,8.1-2.57,12.47s.9,8.61,2.57,12.47c1.67,3.86,3.99,7.33,6.81,10.16,2.96,2.96,6.3,5.27,10.16,6.81,3.86,1.67,8.1,2.57,12.47,2.57s8.61-.9,12.47-2.57c3.86-1.67,7.33-3.99,10.16-6.81,2.96-2.96,5.27-6.3,6.81-10.16,1.67-3.86,2.57-8.1,2.57-12.47,0-2.96-.39-5.79-1.16-8.49-.77-2.7-1.8-5.27-3.21-7.59-1.41-2.31-3.09-4.5-5.01-6.43-1.67-2.06-3.86-3.73-6.17-5.14Z" fill="#d81804"/>
        </g>
        <g>
          <path d="M224.88,53.14h-2.57v-.26h.39c.13,0,.26,0,.26-.13,0,0,0-.13-.13-.39l-.39-.9h-2.06l-.13,.51c-.13,.39-.26,.64-.26,.64q0,.13,.13,.13h.39v.26h-1.8v-.26h0c.26,0,.39-.13,.51-.13,0-.13,.26-.64,.77-1.67l1.03-2.7c.13-.26,.26-.51,.39-.9h.51l2.19,5.01c.13,.13,.13,.26,.26,.39h.39v.39h.13Zm-2.57-2.19l-.9-2.19-.77,2.19h1.67Z" fill="#373737"/>
          <path d="M230.54,51.21c0,.39-.13,.9-.39,1.16s-.51,.51-.9,.64-.77,.26-1.16,.26c-.51,0-1.16-.13-1.67-.39v-.13c.13-.26,.13-.77,.13-1.29h.26v.77c.13,.13,.26,.39,.51,.39,.26,.13,.51,.26,.77,.26,.51,0,.9-.13,1.16-.51,.13-.13,.13-.39,.13-.64,0-.39-.13-.64-.39-.77-.13-.13-.39-.13-.64-.13-.77-.13-1.16-.26-1.41-.39-.39-.26-.51-.64-.51-1.16s.13-1.03,.51-1.29c.39-.39,.9-.51,1.67-.51,.64,0,1.16,.13,1.54,.26v.13c-.13,.39-.13,.77-.13,1.16h-.26v-.64l-.39-.39c-.26-.13-.51-.13-.64-.13-.39,0-.64,.13-.9,.26-.26,.13-.26,.39-.26,.64s.13,.51,.39,.64c.13,.13,.51,.13,1.03,.26,0,0,.26,0,.51,.13,.13,0,.26,.13,.39,.13,.26,.13,.51,.26,.64,.51-.13,.13,0,.39,0,.77Z" fill="#373737"/>
          <path d="M234.65,53.14h-2.57v-.26h.51c.13,0,.13-.13,.13-.13v-4.76q0-.13-.13-.13h-.51v-.26h2.57v.26h-.51c-.13,0-.13,.13-.13,.13v4.76q0,.13,.13,.13h.51v.26Z" fill="#373737"/>
          <path d="M242.11,53.14h-2.57v-.26h.39c.13,0,.26,0,.26-.13,0,0,0-.13-.13-.39l-.39-.9h-2.06l-.13,.51c-.13,.39-.26,.64-.26,.64q0,.13,.13,.13h.39v.26h-1.8v-.26h0c.26,0,.39-.13,.51-.13,0-.13,.26-.64,.77-1.67l1.16-2.7c.13-.26,.26-.51,.39-.9h.51l2.19,5.01c.13,.13,.13,.26,.26,.39h.39v.39Zm-2.57-2.19l-.9-2.19-.77,2.19h1.67Z" fill="#373737"/>
          <path d="M251.76,52.37l-.13,.39c-.51,.26-1.16,.51-1.93,.51-1.41,0-2.31-.51-2.96-1.54-.26-.51-.39-1.03-.39-1.54,0-.9,.26-1.54,.9-2.06,.64-.51,1.41-.77,2.44-.77,.64,0,1.29,.13,1.93,.39h0c-.13,.39-.13,.77-.13,1.29h-.26v-.64c-.39-.39-.77-.51-1.41-.51s-1.16,.26-1.54,.64c-.39,.39-.51,1.03-.51,1.67,0,1.03,.39,1.67,1.03,2.19,.39,.26,.77,.39,1.41,.39,.39,0,.9-.13,1.54-.39h0Z" fill="#373737"/>
          <path d="M257.54,51.72c0,.39-.13,.9-.13,1.29h-3.99v-.13h0c.26-.13,.26-.26,.39-.26v-4.76q0-.13-.13-.13h-.51v-.26h4.24v1.16h-.26c0-.39,0-.51-.13-.64,0,0-.13-.13-.39-.13h-1.41v2.06h1.41s.13-.26,.13-.51h.26v1.67h-.26c0-.26,0-.51-.13-.51,0,0-.13-.13-.39-.13h-1.03v2.31h.51c.77,0,1.29,0,1.41-.13h.13s0-.13,.13-.26l.13-.51h0v-.13h0Z" fill="#373737"/>
          <path d="M266.8,53.14h-2.57v-.26h.51c.13,0,.13-.13,.13-.13v-3.99l-.9,1.8c0,.13-.26,.51-.51,1.16l-.77,1.67h-.26c-.13-.39-.39-.77-.51-1.29l-.51-1.16-1.16-2.44v4.11q0,.13,.13,.13h.51v.26h-1.8v-.26h.51c.13,0,.13-.13,.13-.13v-4.76q0-.13-.13-.13h-.51v-.26h1.93c.13,.26,.26,.51,.39,.9l.26,.51,1.29,2.7,.64-1.29,1.03-2.06c.13-.26,.26-.51,.39-.77h1.8v.26h-.51c-.13,0-.13,.13-.13,.13v4.76q0,.13,.13,.13h.51v.39h0Z" fill="#373737"/>
          <path d="M272.58,51.72c0,.39-.13,.9-.13,1.29h-3.99v-.13h0c.26-.13,.26-.26,.39-.26v-4.76q0-.13-.13-.13h-.51v-.26h4.24v1.16h-.26c0-.39,0-.51-.13-.64,0,0-.13-.13-.39-.13h-1.41v2.06h1.41s.13-.26,.13-.51h0v1.67h-.26c0-.26,0-.51-.13-.51,0,0-.13-.13-.39-.13h-1.03v2.31h.51c.77,0,1.29,0,1.41-.13h.13s0-.13,.13-.26l.13-.51h0l.26-.13h0Z" fill="#373737"/>
          <path d="M280.3,47.74h0c-.26,0-.51,.13-.51,.13-.13,0-.13,.13-.13,.13v5.14h0c-.26,0-.51-.13-.64-.13-.77-.64-2.06-2.19-3.73-4.37v3.99q0,.13,.13,.13h.51v.26h-1.8v-.26h.51c.13,0,.13-.13,.13-.13v-4.76q0-.13-.13-.13h-.51v-.26h1.67c1.03,1.29,2.06,2.7,3.47,4.11v-3.6q0-.13-.13-.13h-.51v-.26h1.8v.13h-.13Z" fill="#373737"/>
          <path d="M286.86,47.35v1.29h-.26v-.64c0-.13-.13-.13-.26-.13h-1.29v4.76q0,.13,.13,.13h.51v.26h-2.57v-.26h.51c.13,0,.13-.13,.13-.13v-4.76h-1.67v.64h-.26v-1.29h3.47c.64,.13,1.29,.13,1.54,.13h0Z" fill="#373737"/>
          <path d="M296.5,52.37l-.13,.39c-.51,.26-1.16,.51-1.93,.51-1.41,0-2.31-.51-2.96-1.54-.26-.51-.39-1.03-.39-1.54,0-.9,.26-1.54,.9-2.06,.64-.51,1.41-.77,2.44-.77,.64,0,1.29,.13,1.93,.39h0c-.13,.39-.13,.77-.13,1.29h-.26v-.64c-.39-.39-.77-.51-1.41-.51s-1.16,.26-1.54,.64c-.39,.39-.51,1.03-.51,1.67,0,1.03,.39,1.67,1.03,2.19,.39,.26,.77,.39,1.41,.39,.39,0,.9-.13,1.54-.39h0Z" fill="#373737"/>
          <path d="M304.08,50.05c0,1.03-.26,1.8-.9,2.31-.51,.51-1.29,.77-2.31,.77-.9,0-1.67-.26-2.19-.77-.51-.51-.77-1.29-.77-2.19,0-1.29,.51-2.19,1.54-2.7,.51-.26,1.03-.39,1.67-.39,.9,0,1.67,.26,2.19,.77,.51,.64,.77,1.41,.77,2.19Zm-1.29,.26c0-.77-.13-1.41-.51-1.93-.26-.51-.77-.64-1.41-.64-.77,0-1.29,.39-1.54,1.03-.13,.39-.26,.77-.26,1.29,0,.77,.13,1.54,.51,1.93,.26,.51,.77,.77,1.41,.77,.77,0,1.29-.39,1.54-1.16,.26-.39,.26-.77,.26-1.29Z" fill="#373737"/>
          <path d="M311.16,53.14h-1.54q0-.13-.13-.39l-1.03-1.67-.39-.64c0-.13-.13-.13-.26-.26v-.13h.13c.26,0,.51,0,.64-.13s.26-.26,.39-.39c.13-.13,.13-.39,.13-.64,0-.51-.13-.77-.51-.9-.13-.13-.39-.13-.77-.13h-.39v4.76q0,.13,.13,.13h.51v.26h-2.57v-.26h.51c.13,0,.13-.13,.13-.13v-4.76q0-.13-.13-.13h-.51v-.26h2.96c.51,0,.77,0,1.03,.13,.26,.13,.51,.26,.64,.51,0,.13,.13,.26,.13,.51,0,.77-.39,1.29-1.29,1.54,.13,.26,.26,.51,.39,.64l.64,.9c.39,.51,.64,.9,.77,1.03h.26v.39h.13Z" fill="#373737"/>
          <path d="M316.94,48.64c0,.51-.13,1.03-.51,1.29-.39,.26-.77,.51-1.29,.51h-.51c0-.13-.13-.13-.13-.26l.13-.13h.26c.26,0,.51-.13,.64-.26,.13-.26,.26-.51,.26-.77,0-.77-.39-1.16-1.03-1.16h-.51v4.76q0,.13,.13,.13h.51v.26h-2.57v-.26h.51c.13,0,.13-.13,.13-.13v-4.76q0-.13-.13-.13h-.51v-.26h2.96c.77,0,1.16,.13,1.41,.51,.13,.13,.26,.39,.26,.64Z" fill="#373737"/>
          <path d="M324.53,50.05c0,1.03-.26,1.8-.9,2.31-.51,.51-1.29,.77-2.31,.77-.9,0-1.67-.26-2.19-.77-.51-.51-.77-1.29-.77-2.19,0-1.29,.51-2.19,1.54-2.7,.51-.26,1.03-.39,1.67-.39,.9,0,1.67,.26,2.19,.77,.39,.64,.77,1.41,.77,2.19Zm-1.29,.26c0-.77-.13-1.41-.51-1.93-.26-.51-.77-.64-1.41-.64-.77,0-1.29,.39-1.54,1.03-.13,.39-.26,.77-.26,1.29,0,.77,.13,1.54,.51,1.93,.26,.51,.77,.77,1.41,.77,.77,0,1.29-.39,1.54-1.16,.13-.39,.26-.77,.26-1.29Z" fill="#373737"/>
          <path d="M331.47,53.14h-1.54q0-.13-.13-.39l-1.03-1.67-.39-.64c0-.13-.13-.13-.26-.26v-.13h.13c.26,0,.51,0,.64-.13s.26-.26,.39-.39,.13-.39,.13-.64c0-.51-.13-.77-.51-.9-.13-.13-.39-.13-.77-.13h-.39v4.76q0,.13,.13,.13h.51v.26h-2.57v-.26h.51c.13,0,.13-.13,.13-.13v-4.76q0-.13-.13-.13h-.51v-.26h2.96c.51,0,.77,0,1.03,.13s.51,.26,.64,.51c0,.13,.13,.26,.13,.51,0,.77-.39,1.29-1.29,1.54,.13,.26,.26,.51,.39,.64l.64,.9c.39,.51,.64,.9,.77,1.03h.26v.39h.13Z" fill="#373737"/>
          <path d="M338.67,53.14h-2.57v-.26h.39c.13,0,.26,0,.26-.13,0,0,0-.13-.13-.39l-.39-.9h-2.06l-.13,.51c-.13,.39-.26,.64-.26,.64q0,.13,.13,.13h.39v.26h-1.8v-.26h0c.26,0,.39-.13,.51-.13,0-.13,.26-.64,.77-1.67l1.03-2.7c.13-.26,.26-.51,.39-.9h.51l2.19,5.01c.13,.13,.13,.26,.26,.39h.39v.39h.13Zm-2.57-2.19l-.9-2.19-.77,2.19h1.67Z" fill="#373737"/>
          <path d="M344.46,47.35v1.29h-.26v-.64c0-.13-.13-.13-.26-.13h-1.29v4.76q0,.13,.13,.13h.51v.26h-2.57v-.26h.51c.13,0,.13-.13,.13-.13v-4.76h-1.67v.64h-.26v-1.29h3.47c.64,.13,1.29,.13,1.54,.13h0Z" fill="#373737"/>
          <path d="M348.31,53.14h-2.57v-.26h.51c.13,0,.13-.13,.13-.13v-4.76q0-.13-.13-.13h-.51v-.26h2.57v.26h-.51c-.13,0-.13,.13-.13,.13v4.76q0,.13,.13,.13h.51v.26Z" fill="#373737"/>
          <path d="M356.03,50.05c0,1.03-.26,1.8-.9,2.31-.51,.51-1.29,.77-2.31,.77-.9,0-1.67-.26-2.19-.77-.51-.51-.77-1.29-.77-2.19,0-1.29,.51-2.19,1.54-2.7,.51-.26,1.03-.39,1.67-.39,.9,0,1.67,.26,2.19,.77,.51,.64,.77,1.41,.77,2.19Zm-1.16,.26c0-.77-.13-1.41-.51-1.93-.26-.51-.77-.64-1.41-.64-.77,0-1.29,.39-1.54,1.03-.13,.39-.26,.77-.26,1.29,0,.77,.13,1.54,.51,1.93,.26,.51,.77,.77,1.41,.77,.77,0,1.29-.39,1.54-1.16,.13-.39,.26-.77,.26-1.29Z" fill="#373737"/>
          <path d="M363.87,47.74h0c-.26,0-.51,.13-.51,.13-.13,0-.13,.13-.13,.13v5.14h0c-.26,0-.51-.13-.64-.13-.77-.77-1.93-2.31-3.73-4.5v3.99q0,.13,.13,.13h.51v.26h-1.8v-.26h.51c.13,0,.13-.13,.13-.13v-4.76q0-.13-.13-.13h-.51v-.26h1.67c1.03,1.29,2.06,2.7,3.47,4.11v-3.6q0-.13-.13-.13h-.51v-.26h1.8v.26h-.13Z" fill="#373737"/>
        </g>
        <g>
          <path d="M248.8,32.44c-.26-.13-.51-.39-.77-.77-.26-.26-.51-.51-.51-.51-.39-.51-.77-.51-1.03-.39-.26,.13-.39,.26-.39,.26-.13,.13-.26,.26-.39,.26s-.26,.13-.26,.13c-.64,.13-1.29,.13-2.06,.13-.64,0-1.41,0-2.06,.13h-2.06c-.13,0-.13-.13-.13-.13-.39-.39-.39-.9-.39-1.41s.13-.9,.13-.9c.26-.64,.77-.77,1.16-.9s.77,0,.77,0c.39,.13,.64,0,.9,0s.26-.13,.26-.13c.26-.13,.51-.26,.77-.51,.26-.26,.39-.51,.51-.77,.39-.39,.51-.9,.77-1.29s.26-.9,.51-1.41c0-.13,.13-.26,.13-.51s.13-.39,0-.51c-.26-.39-.64-.64-.9-.77s-.51-.13-.51-.13c-.77-.26-1.67-.26-2.44-.13-.77,.13-1.29,.39-1.29,.39-.51,.13-.64-.13-.77-.39-.13-.26,0-.64,0-.64,0-.77,.13-1.67,.13-2.19,.13-.64,.26-1.03,.26-1.03,.13-.39,.26-.39,.39-.51h.39c.39,.13,1.16,.26,1.8,.26s1.41-.13,1.67-.51c.13-.13,.13-.26,.13-.26v-.13c-.26-.26-.51-.64-.64-.9l-.26-.51c-.13-.13-.26-.39-.39-.51-.13-.13-.13-.26-.13-.26,0-.26-.13-.51-.13-.64s-.13-.13-.13-.13c-.13-.39-.64-.39-.9-.39-.39,0-.64,.13-.64,.13-.26,.13-.51,.13-.77,.26-.26,.13-.51,.13-.51,.13-.26,.13-.64,.26-.9,.26-.39,.13-.64,.13-1.03,.26-.39,.13-.77,.13-1.29,.13h-5.14c-1.29,0-2.57,0-3.86,.13-.39,.13-.64,.39-.9,.64-.13,.26-.26,.39-.26,.39v.39c.26,.39,.39,.77,.64,1.03s.51,.51,.9,.77c.26,.13,.9,.51,1.54,.9,.64,.26,1.29,.51,1.67,.26l.39-.13,.39-.13c.26-.13,.39,0,.39,0v.13c0,.26,.26,1.16,.26,2.06s0,1.67-.51,1.8c-.64,.51-1.41,.64-1.93,.64-.64,0-1.16-.13-1.16-.13-.13,0-.39-.13-.64-.13-.26-.13-.39-.13-.39-.13l-.77,.13-.9-.13s-.13,.13-.26,.26c-.13,.13-.26,.26-.26,.26-.26,.26,0,.9,.26,1.41,.39,.51,.9,1.16,1.03,1.16,.13,.13,.26,.13,.26,.26v.13c0,.13-.13,.13-.13,.26v.13c-.13,.26-.13,.51,0,.9,0,.26,.13,.51,.13,.51v.51c.13,.51,.51,.77,.77,1.03,.26,.26,.51,.39,.51,.39,.51,.26,.9,.13,1.16,.13,.26-.13,.51-.13,.51-.13,.39-.26,.77-.39,.9-.39s.26,.13,.26,.13c.26,.26,.39,.64,.39,.9s-.13,.51-.13,.51c-.13,.39-.64,.64-1.16,.77s-.9,.26-.9,.26h-1.93c-.51,0-1.03,0-1.41,.13-.39,0-.64,.13-.64,.13h-1.16c-.51,.13-.9,.13-1.16,.13h-.26c-.13-.13-.39-.26-.39-.26h-.13c-.26-.13-.64,0-.9,.13s-.39,.26-.39,.26c-.13,.13-.13,.26-.13,.51v.64h.13c0,.13,0,.26,.13,.26,0,.13,.13,.13,.13,.13,.39,.51,1.03,.9,1.41,1.16,.39,.26,.77,.51,.77,.51,.51,.26,1.16,.26,1.67,.13s.9-.13,.9-.13c.26-.13,.64-.26,1.03-.39,.39-.13,.77-.13,.77-.13,1.8-.51,3.73-.77,5.14-1.03,1.41-.13,2.31-.26,2.31-.26,2.31-.13,4.63-.13,6.43,.13,1.8,.13,3.09,.39,3.09,.39,.51,.13,1.03,.26,1.54,.26h.77c.39-.13,.77-.39,.9-.64,.26-.26,.26-.51,.26-.51,.13-.26,.26-.26,.26-.39h.13c.13,0,.26-.13,.26-.13l.13-.13c.13-.39,.13-.64,0-.77,.39-.39,.26-.51,.26-.51Zm-11.31-5.53h-.51c-.13,0-.39-.13-.39-.13-.13-.13-.26-.13-.39-.13h-.13c-.26,0-.39,.13-.51,.26l-.13,.13,.26,.51,.26,.51c.26,.39,.39,.9,.51,1.41s.13,.77,.13,.77c0,.64-.13,.9-.26,1.16-.13,.26-.26,.26-.26,.26-.39,.26-.77,.39-1.29,.39h-.64c-.39,0-.39-.26-.51-.39v-.39c0-.13,.13-.51,.13-.77,0-.39,.13-.64,.13-.64,.13-.39,.13-.64,0-.9v-.26c-.13-.51-.51-.64-.9-.77s-.64-.13-.64-.13c-.39,0-.64,.13-1.03,.26s-.64,.13-1.03,0c-.13-.13-.26-.39-.39-.64s0-.51,0-.51c0-.26,.13-.51,.39-.51,.13-.13,.26-.13,.26-.13,.26-.26,.51-.26,.77-.26s.39,.13,.39,.13c.26,.13,.51,.26,.77,.26h.51c.39,0,.64-.26,.77-.39s.26-.39,.26-.39c.13-.26,.26-.77,.26-1.29v-.9c-.13-.26-.13-.39,0-.64v-.26c.13-.51,.13-.9,0-1.41s-.13-1.03,0-1.41c.13-.51,.26-.77,.39-.9,.13-.13,.26-.26,.26-.26,.26-.26,.51-.39,.77-.26,.13,0,.26,.13,.26,.13,.39,0,.64,.39,.77,.9,.13,.39,0,.77,0,.77v.64c0,.26-.13,.39-.13,.39-.13,.26-.13,.51,0,.77v.51c0,1.03,0,1.67,.13,2.06,.13,.39,.13,.51,.13,.51,0,.26,.26,.39,.51,.51,.13,.13,.39,.13,.39,.13,.13-.13,.26-.13,.51-.13h.26c.26,0,.51,0,.77-.13s.39-.13,.39-.13c.39-.13,.64-.13,.77,0l.13,.13c.26,.39,.26,.64,.13,.9,0,.26-.13,.39-.13,.39-.13,0-.39,.13-.51,.13s-.51-.39-.51-.39c-.26,.26-.64,.39-1.03,.39-.39,.13-.77,0-1.03,.13Z" fill="#373737"/>
          <g>
            <path d="M259.6,14.44v-.77s.13-.26,.26-.64c.13-.39,.39-.77,.9-1.03,0,0,.26-.13,.77-.26,.39-.13,.9-.13,1.29,.26,0,0,.39,.13,.77,.51,.39,.26,.9,.77,1.16,1.29,0,0,.13,.51,.26,1.16,0,.64,0,1.54-.64,2.06,0,0-.26,.26-.51,.51-.26,.26-.77,.39-1.16,0v-.26c0-.13-.13-.26-.26-.39,0,0-.51-.64-1.16-1.29-.9-.51-1.54-1.16-1.67-1.16Z" fill="#373737"/>
            <path d="M258.06,21.12v.39c0,.26,0,.51,.26,.77,0,0,.13,.26,.51,.51,.39,.39,1.16,.9,2.44,1.54,0,0,0,.13,.13,.13s.39,0,.77-.13c0,0,.39-.13,.64-.39,.39-.26,.64-.39,.77-.64,0,0,.13-.26,0-.39,0-.26-.13-.51-.51-.77,0,0-.13-.26-.39-.51-.26-.26-.51-.51-.9-.51,0,0-.51-.51-1.16-.9-.64-.26-1.67-.26-2.57,.9Z" fill="#373737"/>
            <path d="M264.87,28.32s-.26,0-.51,.13c-.26,.13-.51,.26-.77,.51,0,0-.26,.26-.51,.64-.26,.39-.64,.9-1.03,1.16,0,0,0,.26-.26,.51-.13,.26-.39,.51-.77,.51,0,0-.39,0-.77,.26-.39,.13-.9,.51-.9,.9l-.13,.13-.13,.13v.77s.13,.13,.26,.39c.13,.26,.26,.51,.26,.64,0,0,.13,.26,.39,.51,.26,.26,.51,.64,1.03,.77,0,0,.26,.13,.51,.13,.39,0,.77,0,1.16-.13,0,0,.13-.13,.39-.26,.13-.13,.39-.39,.51-.51l.26-1.03c.13-.64,.26-1.41,.26-2.06,0,0,.13-.39,.13-.9,.13-.51,.26-1.03,.51-1.16,0,0,.13-.13,.13-.39,.13-.26,.13-.51,.13-.64,0,0,0-.26-.13-.64,.13-.26,0-.51,0-.39Z" fill="#373737"/>
            <path d="M266.93,22.28h1.03l.26-.13c.26-.13,.77-.39,1.54-1.03,0,0,.13-.13,.26-.26,.13-.13,.13-.51,.13-.77,0,0-.13-.51-.26-1.03-.13-.51-.13-1.16-.13-1.54,0,0-.13-.64-.13-1.29s-.13-1.41,0-1.54v-.26c0-.13,.13-.39,.26-.51,0,0,.26-.13,.51-.26,.26-.13,.64-.13,1.03,.26,0,0,.26,.26,.51,.77,.26,.51,.39,1.16,.39,1.8v.39c0,.26,0,.39,.13,.51,0,0,0,.51-.13,1.16,0,.64-.13,1.29-.13,1.54v1.03s0,.13,.13,.26,.13,.26,.26,.26c.64,.26,1.54,.26,2.44,0,.77-.26,1.54-.9,1.41-1.67l-.13-2.06-.13-2.06v-.13c0-.13-.13-.26-.13-.39,0,0-.13-.26-.26-.64s-.13-.77,.13-1.03c0,0,.13-.13,.26-.26,.26-.13,.51-.13,1.16,0,0,0,.13,0,.39,.13,.26,.13,.64,.26,.9,.39,0,0,.13,.13,.13,.26s.26,.51,.39,.9v.51c0,.26,0,.64-.13,1.03,0,0,0,.26-.13,.51,0,.26-.13,.51-.13,.64v2.7s.13,.13,.26,.13c.13,.13,.26,.26,.39,.39,0,0,.13,0,.26,.13h.9c.26,0,.51,.13,.9,.39,0,0,.13,0,.13,.13,.13,.13,.13,.26,.13,.39,0,0,0,.13,.13,.39,0,.13,.13,.39,.13,.51,0,0,0,.13,.13,.39,0,.13,0,.39-.13,.51,0,0,0,.13-.13,.13,0,.13-.13,.26-.13,.39,0,0,0,.26-.13,.51-.13,.26-.13,.51-.39,.51h-.51c-.26-.13-.64-.26-.64-.64,0,0,0-.39-.13-.9-.13-.51-.26-.9-.51-1.16,0,0-.13-.13-.26-.13s-.39,0-.51,.39c0,0,0,.13-.13,.26,0,.13-.13,.39-.13,.64,0,0,0,1.29,.13,2.83,0,1.54,.13,3.21,0,3.86v1.93s0,.26,.13,.51v1.54c0,.13-.13,.51-.13,.77-.13,.39-.26,.64-.39,.77,0,0-.13,.13-.26,.13-.13,.13-.26,.13-.51,0,0,0-.13-.13-.26-.13-.13-.13-.26-.13-.39-.13,0,0-.13,0-.26-.26s-.26-.64-.26-1.54v-.39c0-.26,0-.51,.13-.77,0,0,.13-.39,.26-.77,.13-.39,.26-.9,.13-1.16,0,0,0-.77-.13-1.67,0-.9-.13-2.06-.13-2.83v-.39c0-.13-.13-.26-.13-.26,0,0-.13,.26-.26,.51-.13,.26-.39,.51-.39,.51,0,0-.13,.13-.26,0-.13,0-.39-.26-.77-.77,0,0-.26-.26-.51-.77-.26-.51-.51-1.16-.64-2.06,0,0,0-.13-.13-.26s-.26-.13-.51,.13c0,0-.13,.13-.13,.26-.13,.13-.13,.39-.13,.51v1.16s.13,1.54,.13,3.09c.13,1.67,.13,3.34-.13,3.86v1.93s0,.39-.13,.77c-.13,.39-.26,.9-.51,1.03,0,0-.13,.13-.26,.13s-.39,.13-.77,0l-.26-.26c-.13-.13-.26-.39-.26-.64,0,0,0-.13-.13-.51,0-.39,0-1.03,.13-1.8v-6.04c0-.13-.13-.26-.39-.13,0,0-.13,.26-.51,.39-.26,.26-.64,.39-1.16,.39,0,0-.26,0-.51-.26-.26-.13-.51-.39-.51-.9,0,0-.13-.39-.13-.77-.13-.39-.13-.9-.26-1.16v-.64c-.13-.77-.13-1.16,0-1.29Z" fill="#373737"/>
            <path d="M282.61,13.66s0,.51,.26,1.03c.13,.51,.39,1.16,.77,1.54v2.96c0,1.67,0,3.73,.13,5.01v5.66l-.26,1.29c-.13,.64-.13,1.41-.13,1.8v2.06c0,.13,0,.26-.13,.39l-.13,.13c0,.13,0,.26,.13,.39,0,0,.13,.13,.13,.39,.13,.26,.13,.39,.26,.64,0,0,.13,.26,.39,.51,.26,.26,.51,.51,.9,.64h.13c.13,0,.26,0,.39-.26,0,0,.13-.13,.39-.26,.26-.13,.51-.26,.64-.39,0,0,.13,0,.26-.26,.13-.13,.39-.39,.39-.64,0,0,.13-.13,.13-.39s.13-.51,0-.77c0,0-.13-.39-.13-.77-.13-.39-.13-.9-.13-1.16v-.77c0-.39,0-.9-.13-1.16,0,0-.13-2.31-.26-4.76-.13-2.44-.26-5.01-.26-5.53,0,0,0-.64-.13-1.54v-2.06s0-.26,.13-.64,.13-.77,.26-.9c.13-.13,.13-.26,.26-.39v-.26c0-.13,0-.26-.13-.64,0,0,0-.39-.26-.9s-.64-1.03-1.41-1.29c0,0-.39-.13-1.03-.26-.51,0-1.16,0-1.41,.51l-.13,.13c.13,.51,0,.64,.13,.9Z" fill="#373737"/>
          </g>
          <path d="M306.91,12.64s-.13,.26-.13,.51c-.13,.26-.13,.77,0,1.16,.13,.39,.13,.9,.26,1.29s.13,.9,.26,1.29c.26,.77,.51,1.54,.64,2.31s.26,1.67,.26,2.44v.39c0,.26-.26,.39-.51,.39h-.39c-.26,0-.39,0-.51-.13v-.26c0-.13,0-.26,.13-.39v-.26c0-.13-.13-.39-.26-.64-.26-.26-.39-.51-.64-.9-.26-.26-.39-.64-.77-.64h-1.41c-.26,0-.77,.13-1.54,.39,0,0-.26,.13-.51,.13-.26,.13-.51,.26-.64,.39,0,0-.13,0-.26,.13-.13,0-.39,.13-.51,0h-.9c-.51,.13-1.16,.26-1.93,.77,0,0-.26,.13-.39,.39-.26,.13-.39,.39-.51,.64,0,.39-.26,.51-.39,.77-.13,.26-.13,.51,.13,.9,.26,.26,.51,.39,.77,.39h1.41c.26,0,.64,0,.9,.13h.26c.13,0,.39-.13,.77-.26,0,0,.13-.13,.26-.13,.13-.13,.39-.13,.51-.26,0,0,.13,0,.26-.13,.13,0,.39-.13,.51-.13h.26c.13,0,.26,.13,.26,.13l.13,.13c.13,.13,.13,.26,.13,.51v.26c0,.13-.13,.39-.39,.64-.13,.13-.26,.26-.39,.51-.13,.26-.26,.39-.39,.51-.26,.39-.64,.77-1.03,1.16s-.64,.77-.9,1.16c0,0-.13,.13-.26,.39-.13,.13-.39,.39-.51,.64-.26,.39-.64,.64-1.03,.77-.39,.26-.77,.39-1.16,.64-.26,.13-.64,.26-1.03,.51-.39,.13-.64,.39-.9,.64,0,0-.13,.13-.13,.26-.13,.13-.13,.39-.13,.77,0,0,0,.13,.13,.39,.13,.13,.26,.39,.64,.51,.64,.26,1.16,.13,1.54-.26,.39-.39,.77-.77,1.29-1.03,0,0,.39-.26,.9-.64,.51-.39,1.03-.77,1.29-1.03,.26-.26,.51-.51,.77-.77s.51-.51,.77-.64c.39-.39,.64-.64,.9-1.03s.64-.77,.9-1.16c.13-.26,.26-.51,.51-.64,.13-.26,.39-.39,.51-.64l.26-.26c.13-.13,.39-.39,.39-.51,0,0,.13-.13,.13-.26,.13-.13,.26-.39,.26-.64v-.13c0-.13,.13-.26,.13-.26,.13,0,.26-.13,.51-.26,.26,0,.51,0,.9,.26l.26,.26c.13,.13,.26,.39,.26,.77,0,.64,.26,1.29,.26,1.93s.13,1.29,0,1.93c0,0,0,.39-.13,.9,0,.51-.13,.9-.13,1.16,0,0-.13,.39-.13,.77s0,.9,.13,1.16v.51c0,.26-.13,.64-.39,.9h-.51c-.26,0-.64,.13-.77,.39,0,0-.26,.13-.39,.39-.13,.26-.26,.51,.13,1.03,0,0,.26,.26,.64,.77,.39,.39,1.03,1.03,1.67,1.54,0,0,.13,.13,.39,.26,.26,.13,.51,.26,.77,.26,0,0,.13,0,.39-.13,.26-.13,.51-.26,.64-.51,0,0,.13,0,.13-.26,.13-.13,.26-.51,.26-1.03,0,0,0-.26,.13-.51,0-.26,.13-.64,0-.9-.13-1.29-.26-2.57-.39-3.86-.13-1.29-.26-2.57-.13-3.86v-.39c0-.13,0-.39,.13-.64,0,0,0-.13,.13-.13s.26,0,.51,.13c0,0,.51,.39,1.29,1.03s1.93,1.67,3.34,2.7c0,0,.64,.51,1.41,1.16,.77,.64,1.54,1.29,1.8,1.41,.13,.13,.26,.26,.39,.26,.13,.13,.26,.26,.39,.26,.39,.13,.9,0,1.41-.26,.51-.26,.9-.51,1.29-.64,.26-.13,.64-.39,.9-.64s.64-.39,.9-.64c.26-.13,.51-.39,.9-.64,.26-.26,.51-.51,.64-.9v-.51s-.13,0-.26-.13c-.26,0-.51-.13-.9,0h-.77l-.77-.26c-.39-.13-.9-.26-1.03-.26,0,0-.13-.13-.51-.26-.26-.13-.77-.26-1.29-.26,0,0-1.29-.39-2.7-.9-1.41-.51-3.09-1.16-3.86-1.67,0,0-.51-.26-1.16-.64-.64-.26-1.16-.64-1.41-.9l-.13-.13c-.13-.13-.13-.26-.13-.39l.13-.13c.13-.13,.26-.13,.51-.26,0,0,.13-.13,.39-.26,.26-.13,.51-.26,.77-.39,.39-.13,.77-.39,1.16-.51,.39-.26,.77-.39,1.16-.64,.13-.13,.39-.13,.51-.26,.13-.13,.39-.26,.51-.39,.39-.26,.9-.51,1.29-.77,.51-.26,.9-.64,1.03-1.03,0,0,.13-.13,.26-.26,.13-.13,.26-.39,.39-.77,0,0,0-.13,.13-.26,0-.13,.13-.26,.13-.39,0,0,.13-.13,0-.39s-.39-.64-1.03-1.29c0,0-.26-.26-.77-.51-.39-.26-1.03-.39-1.41-.13,0,0-.13,0-.13,.13-.13,.13-.26,.26-.26,.51,0,0-.26,.26-.39,.51-.26,.26-.39,.64-.39,.77,0,0-.13,.26-.26,.39s-.39,.26-.39,.39c-.26,.26-.39,.39-.64,.64s-.39,.39-.64,.64-.51,.51-.77,.77c-.26,.26-.39,.51-.64,.9,0,0-.13,.13-.39,.26-.26,.13-.39,.39-.51,.51,0,0-.13,0-.13-.13s-.13-.26-.13-.64v-2.19c0-.77,0-1.41,.13-2.19,0,0,0-.26,.13-.51,0-.26,.13-.64,.26-.77,0,0,.13-.13,.13-.39s0-.51-.39-.77c-.26-.13-.51-.26-.64-.39-.26-.13-.51-.26-.64-.39s-.39-.26-.64-.39-.51-.39-.51-.51c0,0-.13-.13-.39-.13-.13,0-.39,0-.64,.13,0,0-.13,0-.26,.13,.13,.13,0,.26,0,.39Z" fill="#373737"/>
          <g>
            <path d="M337.39,14.31s-.13-.13-.39-.39c-.13-.26-.26-.64-.26-1.03v-.26c0-.13,.13-.26,.26-.39h.13s.13-.13,.26-.26c.13-.13,.39-.26,.64-.26h1.03c.13,0,.26,.13,.39,.26,0,0,.13,0,.26,.13,.13,0,.26,.13,.39,.13,0,0,.13,.13,.26,.13,.13,.13,.26,.13,.39,.26,0,0,.13,0,.26,.13,.13,.13,.26,.13,.39,.26,0,0,.13,.13,.13,.26,.13,.13,.26,.26,.26,.39,0,0,.13,.26,.26,.51,.13,.26,.26,.51,.26,.64,0,0,.13,.51,0,.9,0,.51-.26,1.03-.77,1.29,0,0-.26,.13-.51,.13s-.77-.13-1.03-.39c0,0-.51-.51-1.03-1.03-.64-.77-1.29-1.29-1.54-1.41Z" fill="#373737"/>
            <path d="M332.89,20.09v-.26c0-.13,.13-.39,.39-.64,0,0,.13-.13,.26-.13,.13-.13,.39-.13,.64-.13h.39c.26,0,.64,0,1.03,.26,0,0,.13,.13,.26,.26,.13,.13,.39,.26,.51,.39,0,0,.39,.13,.77,.39s.77,.51,1.03,.64c0,0,.13,.26,.26,.51,.13,.26,.13,.77,0,1.16-.13,.26-.51,.51-.9,.64s-.9,.26-1.16,.13c0,0-.13,0-.26-.13-.13-.13-.39-.26-.64-.51,0,0-.26-.13-.51-.39-.26-.13-.64-.39-.9-.39-.39,0-.64-.26-.9-.64-.13-.39-.26-.77-.26-1.16Z" fill="#373737"/>
            <path d="M338.41,26.14s.13-.13,.26-.26c.13-.13,.39-.26,.51-.39h.13c.13,0,.26-.13,.26-.13h.39v.26c0,.13,0,.39-.26,.51,0,0-.39,.51-.77,1.29s-.9,1.67-.9,2.44c0,0-.13,.51-.26,1.03-.13,.51-.26,1.16-.26,1.41v1.03c0,.13,0,.26,.13,.39v.39c0,.13-.13,.39-.26,.64,0,0-.13,.13-.13,.26-.13,.13-.13,.26-.26,.39,0,0-.13,.13-.51,.26-.39,.13-.9,.26-1.54,.13,0,0-.26,0-.51-.13s-.64-.26-.77-.64c0,0-.26-.39-.51-.9-.26-.51-.51-1.29-.39-2.06,0,0,0-.13,.13-.26,0-.13,.13-.26,.13-.39,0,0,0-.13,.13-.13,.13-.13,.26-.13,.51-.13,0,0,.13,0,.39-.13,.13-.13,.39-.26,.51-.51l.77-1.03c.39-.51,1.03-1.16,1.29-1.54,0,0,.39-.39,.77-.77,.51-.64,.9-1.03,1.03-1.03Z" fill="#373737"/>
            <path d="M360.4,14.44c-.13-.26-.26-.39-.39-.51s-.13-.13-.13-.13c-.39-.26-.77-.51-1.16-.77-.39-.26-.77-.64-1.16-.9-.26-.13-.26-.26-.39-.26l-.13-.13c-.39-.13-.64-.13-.77-.13s-.13,.13-.13,.13c-.51,.26-1.16,.39-1.54,.39-.64,.13-1.03,.13-1.03,.13h-.77c-.13,0-.26,.13-.26,.13-.13,.13-.39,.26-.77,.26s-.64,0-.77,.13c-.39,0-.64,.13-1.03,.13s-.64,.13-1.03,.13c-.13,0-.39,.13-.51,.13-.26,.13-.39,.13-.51,.13s-.26,0-.39,.13l-.13,.13c-.39,.39-.77,1.03-.9,1.41s-.39,.77-.39,.77c-.13,.26,0,.64,0,1.03,.13,.39,.26,.77,.26,1.03s0,.51,.13,.77v.77c0,.9,0,1.8-.13,2.44-.13,.64-.13,1.16-.13,1.16-.13,.51-.39,1.16-.64,1.8s-.51,1.03-.51,1.03c-.13,.13-.26,.39-.26,.64-.13,.13-.13,.39-.13,.39,0,.39-.39,1.16-.77,1.8s-.64,1.16-.64,1.16c-.13,.26-.64,1.16-1.29,1.93-.64,.9-1.16,1.67-1.16,1.67,0,.26,.13,.26,.26,.26h.26c.26,.13,.77-.13,1.16-.51,.39-.26,.77-.51,.77-.51,.64-.51,1.16-1.03,1.54-1.41,.39-.39,.64-.77,.64-.77,.51-.39,.9-1.03,1.03-1.41,.26-.51,.26-.9,.26-.9,0-.39,.26-1.03,.39-1.67s.26-1.16,.26-1.16c.13-.39,.26-.9,.51-1.29,.26-.39,.39-.64,.39-.64,0-.13,.13-.39,.26-.51,.13-.26,.26-.39,.26-.39,.13-.26,.39-.39,.51-.39h2.7l.51-.13,.51-.13c.39-.13,.9-.26,1.41-.39,.51,0,.9-.13,.9-.13,.51,.13,.77,0,1.03,0,.13-.13,.26-.13,.26-.13,.26-.13,.39-.39,.39-.51s-.13-.26-.13-.26c0-.26,0-.64,.13-.9,0-.26,.13-.51,.13-.51,.13-.39,.39-.77,.64-1.29,.26-.39,.51-.64,.51-.64,.13,0,.26-.26,.39-.51s.26-.39,.26-.39c.13-.26,.39-.39,.51-.51,.13-.13,.26-.13,.26-.13,.26,0,.26-.26,.13-.51,.51-.39,.51-.51,.51-.51Zm-4.76,3.99s-.13,.13-.39,.26c-.26,.13-.64,.26-1.29,.26,0,0-.39,0-.9,.13-.51,0-.9,.13-1.16,.13h-1.03c-.51,0-1.03,0-1.16-.13,0,0-.13-.13-.26-.51-.13-.39-.26-1.03-.26-2.06v-.26c0-.13,.13-.39,.51-.51,0,0,.26-.13,.9-.26,.64-.13,1.54-.26,2.83-.13h.9c.51,0,1.03,.13,1.41,.51,0,0,.26,.13,.26,.51,.26,.64,.13,1.16-.39,2.06Z" fill="#373737"/>
            <path d="M350.76,25.88v-.77s0-.13,.13-.26c0-.13,.13-.26,.26-.39,0,0,.13-.13,.26-.13,.13-.13,.51-.13,.77,.13,0,0,.13,.13,.26,.26,.13,.13,.26,.26,.39,.26,0,0,.13,0,.26,.26,.13,.13,.26,.39,.26,.77v.26c.13,.13,.26,.13,.51,0,0,0,.26-.13,.39-.26,.26-.13,.51-.26,.64-.39,0,0,.13-.13,.39-.26s.51-.39,.64-.39c0,0,.13-.26,.39-.51,.26-.26,.51-.64,.64-.77,0,0,.26-.39,.64-.51,.39-.26,1.03-.39,1.67,0,0,0,.26,.13,.51,.39s.51,.77,.26,1.54c0,0,0,.13-.13,.39-.13,.26-.64,.64-1.41,1.16l-.51,.26c-.26,.13-.64,.26-1.03,.26l-.77,.26c-.39,.13-.77,.26-.9,.26,0,0-.13,0-.39,.13-.13,.13-.39,.13-.51,.26,0,0-.13,0-.26,.13-.13,.13-.26,.26-.26,.51v1.67c0,.9,.13,1.8,.39,2.31,0,0,.26,.26,.51,.51,.26,.26,.64,.51,1.03,.64h1.41s.39-.13,1.03-.13,1.29,0,1.93,.26c0,0,.39,0,.9,.13,.51,.13,1.03,.39,1.41,.64,0,0,.13,.13,.26,.13,.13,.13,.39,.26,.39,.39,0,0,0,.13,.13,.13,.13,.13,.13,.26,.26,.26,0,0,.13,.26,.13,.51s-.13,.64-.77,1.16c-.64,.39-1.41,.64-2.31,.64-.77,0-1.67-.13-2.31-.26-.39-.13-.77-.13-1.29-.26-.39-.13-.9-.13-1.29-.26s-.9-.26-1.29-.51c-.39-.13-.77-.39-1.16-.64,0,0-.39-.26-.9-.77s-1.03-1.16-1.29-1.93c0,0,0-.13-.13-.51,0-.39-.13-1.03,0-1.93v-2.44c-.13-.9-.13-1.8-.13-2.57Z" fill="#373737"/>
          </g>
        </g>
      </g>
    </g>
  </g>
</svg>