<?xml version="1.0" encoding="UTF-8"?>
<svg id="_圖層_2" data-name="圖層 2" xmlns="http://www.w3.org/2000/svg" viewBox="0 0 22.3 22.26">
  <g id="_圖層_3" data-name="圖層 3">
    <g>
      <path d="M22.3,4.48v.7c-.1,.33-.14,.68-.26,1.01-.25,.69-.65,1.29-1.17,1.8-1.88,1.87-3.76,3.75-5.64,5.62-1.03,1.03-2.28,1.52-3.73,1.42-1.14-.08-2.12-.54-2.93-1.36-.36-.36-.35-.93,0-1.29,.34-.36,.89-.39,1.27-.05,.39,.34,.79,.63,1.3,.75,1.03,.25,1.95,.02,2.7-.73,1.93-1.91,3.85-3.82,5.76-5.75,1.5-1.52,.88-4.01-1.15-4.62-1.08-.33-2.03-.05-2.83,.74-1.02,1-2.02,2.02-3.03,3.03-.36,.36-.79,.44-1.18,.21-.5-.29-.63-.93-.27-1.38,.03-.03,.05-.07,.08-.1,1.15-1.13,2.24-2.32,3.44-3.39C15.67,.21,16.88-.13,18.21,.04c1.74,.23,2.97,1.17,3.7,2.76,.18,.39,.3,.81,.34,1.25" fill="#65534b"/>
      <path d="M4.22,22.26h-.13c-.47-.03-.91-.15-1.34-.34-.92-.41-1.63-1.04-2.15-1.89C.27,19.45,.05,18.84,0,18.17v-.13C.04,17.96,.04,17.87,0,17.78,0,17.55,0,17.32,0,17.09c.07-.28,.12-.55,.21-.83,.23-.77,.66-1.42,1.22-1.99,1.7-1.7,3.41-3.4,5.11-5.1,1.03-1.03,2.28-1.52,3.73-1.41,1.14,.08,2.12,.55,2.93,1.36,.35,.36,.35,.91,.02,1.27-.33,.36-.89,.41-1.27,.08-.39-.34-.8-.64-1.32-.77-1.03-.25-1.95-.02-2.7,.73-1.75,1.73-3.5,3.47-5.23,5.22-1.5,1.52-.88,4.01,1.15,4.62,1.08,.33,2.03,.04,2.83-.74,.85-.84,1.68-1.68,2.53-2.52,.35-.34,.76-.41,1.15-.21,.52,.28,.65,.93,.29,1.39-.03,.04-.06,.08-.1,.12-.93,.92-1.85,1.86-2.8,2.77-.69,.66-1.55,1.03-2.5,1.14" fill="#65534b"/>
    </g>
  </g>
</svg>