<?xml version="1.0" encoding="UTF-8"?>
<svg id="_圖層_2" data-name="圖層 2" xmlns="http://www.w3.org/2000/svg" viewBox="0 0 28.1 21.08">
  <g id="_圖層_3" data-name="圖層 3">
    <path d="M28.07,2.05C27.92,.87,26.91,0,25.59,0,17.89,.01,10.19,0,2.49,0,1.01,0,0,1,0,2.48,0,7.85,0,13.23,0,18.61c0,.25,.02,.49,.09,.73,.32,1.1,1.19,1.74,2.37,1.74,2.69,0,5.38,0,8.07,0,5.02,0,10.04,0,15.06,0,.63,0,1.2-.16,1.69-.58,.47-.4,.69-.92,.81-1.51V2.09s-.03-.03-.03-.04Zm-2.05-.84c-.21,.19-.36,.33-.51,.47-3.51,3.2-7.01,6.4-10.52,9.59-.65,.59-1.23,.6-1.86,.01C9.51,7.98,5.89,4.69,2.28,1.39c-.05-.04-.09-.09-.2-.19H26.02ZM1.21,18.99V2c.14,.12,.22,.2,.3,.27,2.94,2.69,5.88,5.37,8.83,8.06,.16,.14,.15,.21,0,.34-3.05,2.65-5.98,5.43-8.92,8.2-.05,.05-.09,.12-.21,.12Zm24.77,.88H2.06c1.4-1.32,2.73-2.58,4.07-3.83,1.67-1.55,3.35-3.08,5.06-4.58,.15-.13,.24-.14,.39,0,.39,.37,.77,.76,1.23,1.05,.95,.59,2.01,.46,2.92-.34,.27-.24,.54-.47,.79-.72,.14-.14,.22-.13,.37,0,1.52,1.34,3.04,2.69,4.52,4.08,1.48,1.38,2.96,2.78,4.44,4.16,.05,.04,.11,.07,.16,.1-.01,.03-.03,.05-.04,.08Zm.92-.89c-.12,.01-.16-.07-.21-.11-2.94-2.77-5.87-5.55-8.92-8.2-.14-.12-.19-.18-.02-.34,2.96-2.69,5.92-5.39,8.87-8.09,.07-.06,.14-.12,.27-.24V18.99Z" fill="#65534b"/>
  </g>
</svg>