<?xml version="1.0" encoding="UTF-8"?>
<svg id="_圖層_2" data-name="圖層 2" xmlns="http://www.w3.org/2000/svg" viewBox="0 0 18.49 18.49">
  <g id="_圖層_1-2" data-name="圖層 1">
    <g>
      <path d="M14.14,3.3c-.6,0-1.08,.49-1.08,1.08s.49,1.08,1.08,1.08,1.08-.49,1.08-1.08-.49-1.08-1.08-1.08Z" fill="#736357"/>
      <path d="M9.32,4.69c-2.51,0-4.55,2.04-4.55,4.55s2.04,4.55,4.55,4.55,4.55-2.04,4.55-4.55-2.04-4.55-4.55-4.55Zm0,7.47c-1.61,0-2.92-1.31-2.92-2.92s1.31-2.92,2.92-2.92,2.92,1.31,2.92,2.92-1.31,2.92-2.92,2.92Z" fill="#736357"/>
      <path d="M12.94,18.49H5.55c-3.06,0-5.55-2.49-5.55-5.55V5.55C0,2.49,2.49,0,5.55,0h7.38c3.06,0,5.55,2.49,5.55,5.55v7.38c0,3.06-2.49,5.55-5.55,5.55ZM5.55,1.74c-2.1,0-3.81,1.71-3.81,3.81v7.38c0,2.1,1.71,3.81,3.81,3.81h7.38c2.1,0,3.81-1.71,3.81-3.81V5.55c0-2.1-1.71-3.81-3.81-3.81H5.55Z" fill="#736357"/>
    </g>
  </g>
</svg>