<?xml version="1.0" encoding="UTF-8"?>
<svg id="_圖層_2" data-name="圖層 2" xmlns="http://www.w3.org/2000/svg" viewBox="0 0 181 181.03">
  <g id="_圖層_1-2" data-name="圖層 1">
    <text transform="translate(90.32 12.76) rotate(4.31)" fill="#65534b" font-family="CormorantInfant-Medium, &apos;Cormorant Infant&apos;" font-size="16"><tspan x="0" y="0">H</tspan></text>
    <text transform="translate(103.61 13.86) rotate(14.16)" fill="#65534b" font-family="CormorantInfant-Medium, &apos;Cormorant Infant&apos;" font-size="16"><tspan x="0" y="0">U</tspan></text>
    <text transform="translate(116.52 17.26) rotate(23.76)" fill="#65534b" font-family="CormorantInfant-Medium, &apos;Cormorant Infant&apos;" font-size="16"><tspan x="0" y="0">A</tspan></text>
    <text transform="translate(127.94 22.6) rotate(30.31)" fill="#65534b" font-family="CormorantInfant-Medium, &apos;Cormorant Infant&apos;" font-size="16"><tspan x="0" y="0"> </tspan></text>
    <text transform="translate(132.39 25) rotate(37.13)" fill="#65534b" font-family="CormorantInfant-Medium, &apos;Cormorant Infant&apos;" font-size="16"><tspan x="0" y="0">H</tspan></text>
    <text transform="translate(142.96 33.14) rotate(46.92)" fill="#65534b" font-family="CormorantInfant-Medium, &apos;Cormorant Infant&apos;" font-size="16"><tspan x="0" y="0">U</tspan></text>
    <text transform="translate(151.92 43.16) rotate(54.3)" fill="#65534b" font-family="CormorantInfant-Medium, &apos;Cormorant Infant&apos;" font-size="16"><tspan x="0" y="0">I</tspan></text>
    <text transform="translate(155.8 48.7) rotate(58.7)" fill="#65534b" font-family="CormorantInfant-Medium, &apos;Cormorant Infant&apos;" font-size="16"><tspan x="0" y="0"> </tspan></text>
    <text transform="translate(158.54 52.96) rotate(65.1)" fill="#65534b" font-family="CormorantInfant-Medium, &apos;Cormorant Infant&apos;" font-size="16"><tspan x="0" y="0">C</tspan></text>
    <text transform="translate(163.61 64) rotate(74.61)" fill="#65534b" font-family="CormorantInfant-Medium, &apos;Cormorant Infant&apos;" font-size="16"><tspan x="0" y="0">O</tspan></text>
    <text transform="translate(167.06 77) rotate(84.36)" fill="#65534b" font-family="CormorantInfant-Medium, &apos;Cormorant Infant&apos;" font-size="16"><tspan x="0" y="0">N</tspan></text>
    <text transform="translate(168.11 89.87) rotate(92.43)" fill="#65534b" font-family="CormorantInfant-Medium, &apos;Cormorant Infant&apos;" font-size="16"><tspan x="0" y="0">S</tspan></text>
    <text transform="translate(167.71 99.11) rotate(100.04)" fill="#65534b" font-family="CormorantInfant-Medium, &apos;Cormorant Infant&apos;" font-size="16"><tspan x="0" y="0">T</tspan></text>
    <text transform="translate(165.65 110.34) rotate(108.78)" fill="#65534b" font-family="CormorantInfant-Medium, &apos;Cormorant Infant&apos;" font-size="16"><tspan x="0" y="0">R</tspan></text>
    <text transform="translate(162.04 121.02) rotate(117.62)" fill="#65534b" font-family="CormorantInfant-Medium, &apos;Cormorant Infant&apos;" font-size="16"><tspan x="0" y="0">U</tspan></text>
    <text transform="translate(155.71 132.8) rotate(127.03)" fill="#65534b" font-family="CormorantInfant-Medium, &apos;Cormorant Infant&apos;" font-size="16"><tspan x="0" y="0">C</tspan></text>
    <text transform="translate(148.29 142.44) rotate(135.68)" fill="#65534b" font-family="CormorantInfant-Medium, &apos;Cormorant Infant&apos;" font-size="16"><tspan x="0" y="0">T</tspan></text>
    <text transform="translate(139.92 150.31) rotate(142.35)" fill="#65534b" font-family="CormorantInfant-Medium, &apos;Cormorant Infant&apos;" font-size="16"><tspan x="0" y="0">I</tspan></text>
    <text transform="translate(134.75 154.47) rotate(149.78)" fill="#65534b" font-family="CormorantInfant-Medium, &apos;Cormorant Infant&apos;" font-size="16"><tspan x="0" y="0">O</tspan></text>
    <text transform="translate(123.08 161.13) rotate(159.52)" fill="#65534b" font-family="CormorantInfant-Medium, &apos;Cormorant Infant&apos;" font-size="16"><tspan x="0" y="0">N</tspan></text>
    <text transform="translate(110.84 165.37) rotate(166.22)" fill="#65534b" font-family="CormorantInfant-Medium, &apos;Cormorant Infant&apos;" font-size="16"><tspan x="0" y="0"> </tspan></text>
    <text transform="translate(105.95 166.75) rotate(173.09)" fill="#65534b" font-family="CormorantInfant-Medium, &apos;Cormorant Infant&apos;" font-size="16"><tspan x="0" y="0">H</tspan></text>
    <text transform="translate(92.7 168.25) rotate(-177.19)" fill="#65534b" font-family="CormorantInfant-Medium, &apos;Cormorant Infant&apos;" font-size="16"><tspan x="0" y="0">U</tspan></text>
    <text transform="translate(79.35 167.46) rotate(-167.65)" fill="#65534b" font-family="CormorantInfant-Medium, &apos;Cormorant Infant&apos;" font-size="16"><tspan x="0" y="0">A</tspan></text>
    <text transform="translate(67.11 164.49) rotate(-161.08)" fill="#65534b" font-family="CormorantInfant-Medium, &apos;Cormorant Infant&apos;" font-size="16"><tspan x="0" y="0"> </tspan></text>
    <text transform="translate(62.28 163.01) rotate(-154.21)" fill="#65534b" font-family="CormorantInfant-Medium, &apos;Cormorant Infant&apos;" font-size="16"><tspan x="0" y="0">H</tspan></text>
    <text transform="translate(50.29 157.11) rotate(-144.35)" fill="#65534b" font-family="CormorantInfant-Medium, &apos;Cormorant Infant&apos;" font-size="16"><tspan x="0" y="0">U</tspan></text>
    <text transform="translate(39.55 149.03) rotate(-136.96)" fill="#65534b" font-family="CormorantInfant-Medium, &apos;Cormorant Infant&apos;" font-size="16"><tspan x="0" y="0">I</tspan></text>
    <text transform="translate(34.66 144.35) rotate(-132.59)" fill="#65534b" font-family="CormorantInfant-Medium, &apos;Cormorant Infant&apos;" font-size="16"><tspan x="0" y="0"> </tspan></text>
    <text transform="translate(31.15 140.71) rotate(-126.23)" fill="#65534b" font-family="CormorantInfant-Medium, &apos;Cormorant Infant&apos;" font-size="16"><tspan x="0" y="0">C</tspan></text>
    <text transform="translate(24.01 130.89) rotate(-116.8)" fill="#65534b" font-family="CormorantInfant-Medium, &apos;Cormorant Infant&apos;" font-size="16"><tspan x="0" y="0">O</tspan></text>
    <text transform="translate(18.06 118.85) rotate(-107.03)" fill="#65534b" font-family="CormorantInfant-Medium, &apos;Cormorant Infant&apos;" font-size="16"><tspan x="0" y="0">N</tspan></text>
    <text transform="translate(14.49 106.42) rotate(-98.8)" fill="#65534b" font-family="CormorantInfant-Medium, &apos;Cormorant Infant&apos;" font-size="16"><tspan x="0" y="0">S</tspan></text>
    <text transform="translate(13.09 97.28) rotate(-91.2)" fill="#65534b" font-family="CormorantInfant-Medium, &apos;Cormorant Infant&apos;" font-size="16"><tspan x="0" y="0">T</tspan></text>
    <text transform="translate(12.91 85.87) rotate(-82.62)" fill="#65534b" font-family="CormorantInfant-Medium, &apos;Cormorant Infant&apos;" font-size="16"><tspan x="0" y="0">R</tspan></text>
    <text transform="translate(14.33 74.69) rotate(-73.79)" fill="#65534b" font-family="CormorantInfant-Medium, &apos;Cormorant Infant&apos;" font-size="16"><tspan x="0" y="0">U</tspan></text>
    <text transform="translate(18.21 61.9) rotate(-64.32)" fill="#65534b" font-family="CormorantInfant-Medium, &apos;Cormorant Infant&apos;" font-size="16"><tspan x="0" y="0">C</tspan></text>
    <text transform="translate(23.58 51) rotate(-55.61)" fill="#65534b" font-family="CormorantInfant-Medium, &apos;Cormorant Infant&apos;" font-size="16"><tspan x="0" y="0">T</tspan></text>
    <text transform="translate(30.26 41.63) rotate(-48.93)" fill="#65534b" font-family="CormorantInfant-Medium, &apos;Cormorant Infant&apos;" font-size="16"><tspan x="0" y="0">I</tspan></text>
    <text transform="translate(34.51 36.54) rotate(-41.54)" fill="#65534b" font-family="CormorantInfant-Medium, &apos;Cormorant Infant&apos;" font-size="16"><tspan x="0" y="0">O</tspan></text>
    <text transform="translate(44.66 27.72) rotate(-31.87)" fill="#65534b" font-family="CormorantInfant-Medium, &apos;Cormorant Infant&apos;" font-size="16"><tspan x="0" y="0">N</tspan></text>
    <text transform="translate(55.85 21.12) rotate(-25.18)" fill="#65534b" font-family="CormorantInfant-Medium, &apos;Cormorant Infant&apos;" font-size="16"><tspan x="0" y="0"> </tspan></text>
    <text transform="translate(60.54 18.97) rotate(-21.34)" fill="#65534b" font-family="CormorantInfant-Medium, &apos;Cormorant Infant&apos;" font-size="16"><tspan x="0" y="0"> </tspan></text>
  </g>
</svg>