<?xml version="1.0" encoding="UTF-8"?>
<svg id="_圖層_2" data-name="圖層 2" xmlns="http://www.w3.org/2000/svg" xmlns:xlink="http://www.w3.org/1999/xlink" viewBox="0 0 167.77 133.7">
  <defs>
    <clipPath id="clippath">
      <path d="M101.11,64.37c.13-.04,.38-.06,.74-.06,.58,0,1.38,.2,1.38,1.26,0,.78-.55,1.3-1.46,1.3h-.66v-2.5Z" fill="#ce8122"/>
    </clipPath>
  </defs>
  <g id="_圖層_1-2" data-name="圖層 1">
    <g>
      <g>
        <path d="M101.11,64.37c.13-.04,.38-.06,.74-.06,.58,0,1.38,.2,1.38,1.26,0,.78-.55,1.3-1.46,1.3h-.66v-2.5Z" fill="#ce8122"/>
        <g clip-path="url(#clippath)">
          <rect y="0" width="138.54" height="133.7" fill="#ce8122"/>
        </g>
      </g>
      <g>
        <g>
          <path d="M118.32,65.17c-.24,.6-.44,1.13-.6,1.68h-.02c-.19-.57-.39-1.08-.63-1.67l-.82-2.02h-1.78l2.35,4.88v3.35h1.6v-3.4l2.46-4.82h-1.76l-.8,2.01Z" fill="#65534b"/>
          <polygon points="123.51 67.77 126.22 67.77 126.22 66.47 123.51 66.47 123.51 64.48 126.38 64.48 126.38 63.16 121.91 63.16 121.91 71.38 126.55 71.38 126.55 70.05 123.51 70.05 123.51 67.77" fill="#65534b"/>
          <path d="M129.75,63.16l-2.35,8.22h1.62l.57-2.17h2.23l.59,2.17h1.67l-2.32-8.22h-2.01Zm.07,4.85l.5-1.88c.12-.48,.26-1.15,.37-1.67h.03c.11,.5,.25,1.17,.38,1.68l.5,1.87h-1.77Z" fill="#65534b"/>
          <path d="M139.25,67.5v-.03c.78-.3,1.43-1.04,1.43-2.04,0-2.2-2.12-2.33-3.16-2.33-.81,0-1.59,.07-2.14,.17v8.12h1.59v-3.34h.54c.76,0,1.09,.33,1.31,1.39,.19,.99,.4,1.71,.52,1.95h1.64c-.16-.31-.38-1.29-.62-2.27-.2-.83-.52-1.39-1.1-1.61Zm-1.63-.63h-.66v-2.5c.13-.04,.38-.06,.74-.06,.58,0,1.38,.2,1.38,1.26,0,.78-.55,1.3-1.46,1.3Z" fill="#65534b"/>
          <path d="M145,66.58c-1.02-.46-1.42-.73-1.42-1.32,0-.46,.38-.91,1.22-.91,.68,0,1.19,.2,1.48,.35l.33-1.29c-.39-.19-.99-.37-1.78-.37-1.79,0-2.86,1.04-2.86,2.38,0,1.07,.78,1.84,2.03,2.37,.92,.4,1.32,.75,1.32,1.34s-.46,1.03-1.35,1.03c-.67,0-1.36-.2-1.79-.46l-.31,1.33c.39,.24,1.22,.46,2.04,.46,1.93,0,3.02-1.05,3.02-2.48,0-1.08-.59-1.84-1.92-2.43Z" fill="#65534b"/>
        </g>
        <g>
          <path d="M131.38,30.67h0c-20.06,0-36.38,16.32-36.38,36.39,0,4.87-1.61,9.37-4.32,13-1.04,1.39-2.25,2.66-3.59,3.77-.54,.44-1.1,.86-1.67,1.25-2.31,1.56-4.94,2.69-7.77,3.27-1.41,.29-2.88,.44-4.37,.44-11.99,0-21.74-9.75-21.74-21.73h-14.65c0,20.06,16.32,36.38,36.39,36.38,9.4,0,17.99-3.59,24.45-9.46,7.33-6.66,11.93-16.26,11.93-26.92,0-9.84,6.58-18.18,15.57-20.84,.51-.15,1.02-.28,1.54-.4,.43-.09,.87-.18,1.31-.25,1.08-.17,2.18-.25,3.31-.25h0c2.62,0,5.14,.47,7.47,1.32,.66,.24,1.32,.52,1.95,.83,.63,.31,1.25,.64,1.85,1,.6,.36,1.18,.75,1.73,1.17,1.12,.84,2.15,1.78,3.08,2.8,.7,.77,1.35,1.6,1.94,2.46,2.35,3.47,3.72,7.65,3.72,12.14s-1.37,8.67-3.72,12.14c-.59,.87-1.23,1.69-1.94,2.46-.94,1.03-1.97,1.97-3.08,2.81-.56,.42-1.14,.81-1.73,1.17-.6,.36-1.21,.7-1.85,1.01-.63,.31-1.28,.58-1.95,.83-2.33,.85-4.84,1.32-7.47,1.32-1.05,0-2.08-.07-3.1-.22-1.01-.14-2-.36-2.96-.64-1.92-.56-3.74-1.38-5.4-2.42-.83-.52-1.63-1.09-2.38-1.71-.38-.31-.74-.64-1.1-.97-.8-.75-1.53-1.57-2.2-2.44-.83-1.06-2.52-3.15-3.14-4.36-.53,2.05-1.21,4.04-2.04,5.95-1.38,3.19-3.17,6.16-5.29,8.85,.83,.89,2.66,2.71,3.58,3.51,3.66,3.23,7.98,5.74,12.73,7.29,1.19,.39,2.4,.72,3.64,.98,3.49,.75,7.18,1,10.96,.67,17.58-1.56,31.67-15.85,32.98-33.45,1.6-21.32-15.29-39.17-36.28-39.17Z" fill="#65534b"/>
          <path d="M64.1,26.1l1.76,14.49c.87-1.78,6.61-4.7,13.1-7.9,9.54-4.7,20.7-10,20.3-13.18l-6.3-13.04s0,.05,0,.07c.02,3.21-8.1,7.1-16.26,11.5-4.7,2.53-9.42,5.23-12.6,8.07Z" fill="#65534b"/>
          <path d="M71.12,18.17c.62-.34,1.25-.68,1.87-1.02,8.09-4.36,16.65-8.14,16.77-11.33-.05-.05-.13-.09-.19-.14C66.33,7.65,52.12,1.72,48.46,0c-.03,2.33,.39,9.24-1.27,13.61,.15,.04,8.41,5.29,23.94,4.56Z" fill="#65534b"/>
          <path d="M81.49,34.1l-1.47,.72c-3.52,1.73-10.9,5.73-12.84,7.36,2.05-.04,16.59,.17,25.04,13.81,0,0,.8,1.57,1.31,2.75,1.21-5.52,3.59-10.6,6.88-14.97-4.42-4.92-16.41-9.83-17.62-10.32-.43,.21-.86,.42-1.3,.64Z" fill="#65534b"/>
        </g>
      </g>
    </g>
  </g>
</svg>