<?xml version="1.0" encoding="UTF-8"?>
<svg id="_圖層_2" data-name="圖層 2" xmlns="http://www.w3.org/2000/svg" viewBox="0 0 19.42 18.49">
  <g id="_圖層_1-2" data-name="圖層 1">
    <path d="M15.67,7.52c.28,0,.51,.23,.51,.51s-.23,.51-.51,.51h-1.42v.91h1.42c.28,0,.51,.23,.51,.51s-.23,.51-.51,.51h-1.93c-.28,0-.51-.23-.51-.51v-3.86c0-.28,.23-.51,.51-.51h1.93c.28,0,.51,.23,.51,.51s-.23,.51-.51,.51h-1.42v.91h1.42Zm-3.12,2.44c0,.22-.14,.41-.35,.48-.05,.02-.11,.03-.16,.03-.17,0-.32-.07-.41-.2l-1.98-2.68v2.38c0,.28-.23,.51-.51,.51s-.51-.23-.51-.51v-3.86c0-.22,.14-.41,.35-.48,.05-.02,.11-.03,.16-.03,.16,0,.3,.08,.4,.21l1.99,2.69v-2.39c0-.28,.23-.51,.51-.51s.51,.23,.51,.51v3.86Zm-4.64,0c0,.28-.23,.51-.51,.51s-.51-.23-.51-.51v-3.86c0-.28,.23-.51,.51-.51s.51,.23,.51,.51v3.86Zm-1.99,.51h-1.93c-.28,0-.51-.23-.51-.51v-3.86c0-.28,.23-.51,.51-.51s.51,.23,.51,.51v3.35h1.42c.28,0,.51,.23,.51,.51s-.23,.51-.51,.51m13.51-2.58C19.42,3.54,15.06,0,9.71,0S0,3.54,0,7.88c0,3.89,3.45,7.15,8.12,7.77,.32,.07,.75,.21,.86,.48,.1,.24,.06,.62,.03,.87l-.13,.83c-.04,.24-.19,.96,.85,.52,1.04-.44,5.59-3.3,7.63-5.64,1.39-1.53,2.06-3.09,2.06-4.83" fill="#736357"/>
  </g>
</svg>