<?xml version="1.0" encoding="UTF-8"?>
<svg id="_圖層_2" data-name="圖層 2" xmlns="http://www.w3.org/2000/svg" viewBox="0 0 220.07 44.81">
  <defs>
    <style>
      .cls-1 {
        fill: #c7b4a1;
      }

      .cls-1, .cls-2, .cls-3 {
        stroke-width: 0px;
      }

      .cls-2 {
        fill: #65534b;
      }

      .cls-3 {
        fill: #fff;
      }
    </style>
  </defs>
  <g id="_圖層_1-2" data-name="圖層 1">
    <g>
      <g>
        <path class="cls-3" d="M79.6,41.73h-.98v-2.7h-3.34v2.7h-.95v-6.08h.95v2.58h3.34v-2.58h.98v6.08Z"/>
        <path class="cls-3" d="M80.75,39.18v-3.53h.98v3.53c0,1.29.56,1.92,1.68,1.9,1.12,0,1.68-.64,1.68-1.93v-3.5h.98v3.5c0,1.78-.9,2.67-2.69,2.67s-2.63-.88-2.63-2.64Z"/>
        <path class="cls-3" d="M90.16,35.65l2.51,6.08h-1.04l-.64-1.63h-2.79l-.64,1.63h-1.04l2.51-6.08h1.13ZM89.61,36.45h-.03c-.06.18-.12.36-.18.53-.02.04-.34.83-.95,2.37h2.3c-.61-1.54-.93-2.33-.95-2.37,0-.02-.01-.06-.03-.12-.1-.24-.15-.38-.15-.42Z"/>
        <path class="cls-3" d="M100.42,41.73h-.98v-2.7h-3.34v2.7h-.95v-6.08h.95v2.58h3.34v-2.58h.98v6.08Z"/>
        <path class="cls-3" d="M101.58,39.18v-3.53h.98v3.53c0,1.29.56,1.92,1.68,1.9,1.12,0,1.68-.64,1.68-1.93v-3.5h.98v3.5c0,1.78-.9,2.67-2.69,2.67s-2.63-.88-2.63-2.64Z"/>
        <path class="cls-3" d="M108.08,41.73v-6.08h.95v6.08h-.95Z"/>
        <path class="cls-3" d="M117.55,37.37l-.95.24c-.25-.79-.79-1.21-1.65-1.25-1.2.08-1.85.86-1.93,2.34.06,1.48.69,2.27,1.9,2.37.98-.02,1.57-.53,1.78-1.54l.95.27c-.31,1.34-1.21,2.02-2.73,2.02-1.85-.1-2.83-1.13-2.94-3.08.1-2,1.09-3.05,2.97-3.17,1.31.04,2.17.64,2.6,1.81Z"/>
        <path class="cls-3" d="M121.3,35.56c1.9.12,2.92,1.18,3.06,3.17-.1,1.96-1.13,2.99-3.09,3.08-1.96-.1-2.98-1.13-3.06-3.08.1-2.02,1.13-3.07,3.09-3.17ZM121.24,41.08c1.31-.06,1.99-.84,2.05-2.34-.06-1.48-.73-2.27-2.02-2.37-1.29.1-1.97.89-2.05,2.37.06,1.46.73,2.24,2.02,2.34Z"/>
        <path class="cls-3" d="M125.3,35.65h1.13l3.18,4.98h.03v-4.98h.92v6.08h-1.1l-3.24-5.01v5.01h-.92v-6.08Z"/>
        <path class="cls-3" d="M131.47,39.89l.98-.21c.14.97.72,1.45,1.74,1.45.9-.02,1.37-.37,1.41-1.04.06-.45-.36-.8-1.26-1.04-.08-.04-.26-.09-.52-.15-.08-.02-.14-.03-.18-.03-1.37-.28-2.01-.84-1.93-1.69.08-1.03.83-1.57,2.23-1.63,1.43-.02,2.27.53,2.51,1.66l-.95.21c-.14-.73-.64-1.1-1.5-1.1-.8.02-1.23.31-1.29.86-.06.45.43.78,1.47.98.41.1.71.18.92.24,1.04.32,1.55.87,1.53,1.66-.04,1.13-.85,1.71-2.42,1.75-1.57.04-2.49-.6-2.75-1.93Z"/>
        <path class="cls-3" d="M142.32,36.42h-2.14v5.31h-.95v-5.31h-2.17v-.77h5.26v.77Z"/>
        <path class="cls-3" d="M148.59,41.73h-1.23l-1.93-2.52h-1.44v2.52h-.95v-6.08h2.91c1.41.04,2.15.62,2.23,1.75,0,1.03-.58,1.61-1.74,1.75l2.14,2.58ZM144,36.39v2.08h1.74c.98,0,1.46-.35,1.44-1.04,0-.69-.48-1.04-1.44-1.04h-1.74Z"/>
        <path class="cls-3" d="M149.16,39.18v-3.53h.98v3.53c0,1.29.56,1.92,1.68,1.9,1.12,0,1.68-.64,1.68-1.93v-3.5h.98v3.5c0,1.78-.9,2.67-2.69,2.67s-2.63-.88-2.63-2.64Z"/>
        <path class="cls-3" d="M160.93,37.37l-.95.24c-.24-.79-.79-1.21-1.65-1.25-1.2.08-1.85.86-1.93,2.34.06,1.48.69,2.27,1.9,2.37.98-.02,1.57-.53,1.77-1.54l.95.27c-.31,1.34-1.21,2.02-2.72,2.02-1.86-.1-2.84-1.13-2.94-3.08.1-2,1.09-3.05,2.97-3.17,1.31.04,2.17.64,2.6,1.81Z"/>
        <path class="cls-3" d="M166.64,36.42h-2.14v5.31h-.95v-5.31h-2.17v-.77h5.26v.77Z"/>
        <path class="cls-3" d="M167.39,41.73v-6.08h.95v6.08h-.95Z"/>
        <path class="cls-3" d="M172.37,35.56c1.9.12,2.92,1.18,3.06,3.17-.1,1.96-1.13,2.99-3.09,3.08-1.96-.1-2.98-1.13-3.06-3.08.1-2.02,1.13-3.07,3.09-3.17ZM172.31,41.08c1.31-.06,1.99-.84,2.05-2.34-.06-1.48-.73-2.27-2.02-2.37-1.29.1-1.97.89-2.05,2.37.06,1.46.73,2.24,2.02,2.34Z"/>
        <path class="cls-3" d="M176.37,35.65h1.13l3.18,4.98h.03v-4.98h.92v6.08h-1.1l-3.24-5.01v5.01h-.92v-6.08Z"/>
        <path class="cls-3" d="M190.12,37.37l-.95.24c-.24-.79-.79-1.21-1.65-1.25-1.2.08-1.85.86-1.93,2.34.06,1.48.69,2.27,1.9,2.37.98-.02,1.57-.53,1.77-1.54l.95.27c-.31,1.34-1.21,2.02-2.72,2.02-1.86-.1-2.84-1.13-2.94-3.08.1-2,1.09-3.05,2.97-3.17,1.31.04,2.17.64,2.6,1.81Z"/>
        <path class="cls-3" d="M193.87,35.56c1.9.12,2.92,1.18,3.06,3.17-.1,1.96-1.13,2.99-3.09,3.08-1.96-.1-2.98-1.13-3.06-3.08.1-2.02,1.13-3.07,3.09-3.17ZM193.81,41.08c1.31-.06,1.99-.84,2.05-2.34-.06-1.48-.74-2.27-2.02-2.37-1.29.1-1.97.89-2.05,2.37.06,1.46.74,2.24,2.02,2.34Z"/>
        <path class="cls-3" d="M199.03,40.63v1.07h-1.13v-1.07h1.13Z"/>
        <path class="cls-3" d="M199.81,43.27l-.27-.36c.51-.3.76-.7.76-1.22h-.61v-1.07h1.13v.92c.02.77-.32,1.34-1.01,1.72Z"/>
        <path class="cls-3" d="M207.27,41.73h-4.29v-6.08h.95v5.37h3.34v.71Z"/>
        <path class="cls-3" d="M212.83,36.42h-2.14v5.31h-.95v-5.31h-2.17v-.77h5.26v.77Z"/>
        <path class="cls-3" d="M215.63,41.73h-2.11v-6.08h2.08c2.1.04,3.17,1.05,3.21,3.03.04,2.08-1.02,3.09-3.19,3.05ZM215.57,36.42h-1.1v4.6h1.1c1.49,0,2.23-.78,2.23-2.34-.04-1.46-.79-2.21-2.23-2.25Z"/>
      </g>
      <g>
        <g>
          <polygon class="cls-2" points="65.82 22.99 60.4 28.39 43.98 11.89 44 1.08 65.82 22.99"/>
          <rect class="cls-2" x="31.88" y="15.7" width="7.64" height="30.92" transform="translate(-11.58 34.28) rotate(-44.88)"/>
          <polygon class="cls-1" points="32.93 12.11 32.91 22.91 32.9 22.92 22.09 22.9 32.93 12.11"/>
          <polygon class="cls-1" points="55.01 22.97 65.82 22.99 43.91 44.81 43.93 34 55.01 22.97"/>
        </g>
        <g>
          <polygon class="cls-1" points="0 22.85 5.39 28.27 21.89 11.85 21.91 1.03 0 22.85"/>
          <rect class="cls-1" x="14.62" y="27.32" width="30.92" height="7.64" transform="translate(-13.21 30.3) rotate(-44.88)"/>
          <polygon class="cls-2" points="32.93 12.11 32.91 22.91 32.91 22.92 43.73 22.94 32.93 12.11"/>
          <polygon class="cls-2" points="10.8 22.87 0 22.85 21.82 44.76 21.84 33.95 10.8 22.87"/>
        </g>
      </g>
      <g>
        <g>
          <path class="cls-3" d="M74.5,5.12h4.17c-.07-1.23-.15-2.37-.22-3.43,0-.96.44-1.44,1.33-1.44s1.33.54,1.33,1.62c-.1.84-.16,1.92-.18,3.25h2.1c.52,0,.98.07,1.4.22.37.12.55.38.55.77,0,.52-.26.77-.77.77-1.23,0-2.34.01-3.32.04-.02.94-.04,1.93-.04,2.99.47.32,1.5,1.29,3.1,2.91.27.32.41.64.41.96,0,.52-.18.77-.55.77-.2,0-1.18-.64-2.95-1.92,0,3.25.04,7.13.11,11.66,0,1.77-.44,2.66-1.33,2.66s-1.33-.65-1.33-1.96c.3-3.57.45-7.67.48-12.32-.49,1.18-1.14,2.41-1.96,3.69-1.08,1.53-1.91,2.29-2.47,2.29-.76,0-1.49-.3-2.18-.89-.62-.49-.92-.97-.92-1.44,0-.27.15-.43.44-.48,1.35-.05,2.69-.71,4.02-1.99,1.16-1.08,2.18-2.53,3.06-4.35-.02-.86-.05-1.7-.07-2.51-2.04.1-3.64.25-4.8.44-.69,0-1.03-.34-1.03-1.03,0-.25.12-.52.37-.81.32-.32.74-.48,1.25-.48ZM87.75,6.6c.71.2,1.3.3,1.77.3l5.64-.15h6.2l2.18-.15c.42,0,.63.28.63.85,0,.32-.17.6-.52.85-.25.25-.52.37-.81.37-1.87-.1-4.03-.15-6.49-.15h-.18c.02.15.04.28.04.41v2.69h3.14l.11-.92c0-.89.44-1.33,1.33-1.33s1.29.39,1.29,1.18l-.3,1.07h.3l2.25-.15c.37,0,.55.28.55.85,0,.34-.15.63-.44.85-.27.25-.57.37-.89.37-.71-.05-1.48-.07-2.29-.07l-.48,1.66c-.25.39-.55.59-.92.59-.59,0-.89-.33-.89-1l.18-1.29c-.98-.02-1.97-.04-2.95-.04.02.98.04,1.88.04,2.69,2.78-.02,5.16-.04,7.16-.04l2.25-.33c.47,0,.7.26.7.77,0,.47-.22.95-.66,1.44-.64.59-1.3.89-1.99.89-1.21-.25-2.64-.46-4.32-.63-1.13-.07-2.16-.13-3.1-.18.02.79.04,1.5.04,2.14h4.13l2.25-.15c.47,0,.7.31.7.92,0,.34-.15.64-.44.89-.27.3-.57.44-.89.44-1.57-.12-3.42-.18-5.53-.18h-.15c.02.79.06,1.49.11,2.1,0,2.07-.46,3.1-1.36,3.1s-1.33-.8-1.33-2.4c.05-1.01.09-1.93.11-2.77-.66.02-1.33.07-1.99.15-1.13.05-2.31.2-3.54.44-.89,0-1.33-.36-1.33-1.07,0-.3.2-.65.59-1.07.3-.27.69-.41,1.18-.41.74.1,1.36.15,1.88.15l3.28-.11c.02-.86.05-1.6.07-2.21h-.33c-2.14,0-4.01.07-5.61.22-1.06.05-2.31.21-3.76.48-.79,0-1.18-.33-1.18-1,0-.32.21-.68.63-1.07.42-.37.81-.55,1.18-.55.44,0,1,.02,1.66.07,1.01.05,2.08.07,3.21.07,1.5-.02,2.91-.05,4.24-.07v-.18c0-.74-.02-1.57-.07-2.51-1.18.02-2.32.06-3.43.11l.11,1.48c-.02.57-.26.85-.7.85-.52,0-.82-.38-.92-1.14l-.3-1.11c-.89.07-1.77.18-2.66.33-.76,0-1.14-.33-1.14-1,0-.34.18-.7.55-1.07.25-.27.6-.41,1.07-.41.61.2,1.16.3,1.62.3l-.33-1.07c0-.79.39-1.18,1.18-1.18.89,0,1.33.39,1.33,1.18l.07,1.03,3.47-.07c-.05-.76-.1-1.53-.15-2.29,0-.32.02-.59.07-.81-.91.02-1.78.06-2.62.11-1.25.05-2.57.18-3.95.41-.79,0-1.18-.33-1.18-1,0-.34.2-.7.59-1.07.27-.27.61-.41,1.03-.41ZM85.83,2.57h2.47l-.22-1.03c0-.66.38-1,1.14-1s1.18.38,1.18,1.14v.89h2.21c.49,0,.92.07,1.29.22.34.1.52.33.52.7,0,.47-.21.7-.63.7-1.28,0-2.41.01-3.39.04v1.18c-.02.57-.26.85-.7.85-.52,0-.81-.33-.89-1l-.18-.96c-1.4.07-2.52.18-3.36.33-.62,0-.92-.28-.92-.85,0-.22.12-.48.37-.77.3-.3.66-.44,1.11-.44ZM96.75,2.32l1.36.15h1.51l-.04-.59c0-.89.39-1.33,1.18-1.33s1.14.38,1.14,1.14l-.11.74c1.82-.02,3.15-.06,3.98-.11.27,0,.41.18.41.55,0,.27-.12.54-.37.81-.34.34-.71.52-1.11.52-.71-.12-1.76-.21-3.14-.26l-.22,1.62c-.22.37-.53.55-.92.55-.47,0-.7-.28-.7-.85l-.07-1.33c-.86.05-1.92.18-3.17.41-.71,0-1.07-.23-1.07-.7,0-.34.15-.66.44-.96.27-.25.57-.37.89-.37Z"/>
          <path class="cls-3" d="M95.12,27.5c-1.05,0-1.58-.89-1.58-2.65.04-.91.08-1.74.1-2.51-.56.03-1.13.07-1.71.14-1.13.05-2.31.2-3.52.44-1.43-.02-1.63-.82-1.63-1.31,0-.36.22-.77.66-1.24.35-.33.81-.48,1.36-.48.76.1,1.38.15,1.88.15l3.04-.1c.02-.65.04-1.22.06-1.72h-.07c-2.12,0-4,.07-5.58.22-1.06.05-2.32.21-3.74.48h-.01c-1.28,0-1.47-.78-1.47-1.24,0-.4.23-.81.71-1.25.47-.41.92-.62,1.35-.62.46,0,1.02.02,1.68.07.85.04,1.78.07,2.75.07-.27-.18-.5-.53-.58-1.19l-.23-.87c-.81.07-1.62.18-2.43.31h0c-1.25,0-1.43-.78-1.43-1.24,0-.41.21-.83.63-1.25.28-.31.71-.48,1.25-.48h.08c.44.15.84.24,1.2.28l-.24-.8c0-.92.51-1.43,1.43-1.43,1.02,0,1.58.51,1.58,1.43l.06.78,2.97-.06-.13-2.03c0-.21,0-.4.03-.57-.8.02-1.58.06-2.31.1-1.25.05-2.57.19-3.92.4h0c-1.28,0-1.46-.78-1.46-1.24,0-.42.23-.84.67-1.25.31-.31.72-.47,1.2-.47h.07c.69.2,1.26.3,1.7.3l5.64-.15h6.2l2.16-.15h0c.34,0,.89.14.89,1.1,0,.4-.21.76-.62,1.05-.26.27-.6.42-.96.42-1.86-.1-4-.15-6.4-.15,0,.05,0,.11,0,.16v2.44h2.66l.08-.7c0-.99.56-1.55,1.58-1.55s1.54.51,1.54,1.43v.07s-.22.75-.22.75l2.2-.14h0c.32,0,.82.14.82,1.1,0,.43-.18.78-.54,1.05-.3.27-.66.42-1.04.42-.66-.05-1.36-.07-2.1-.07l-.46,1.54c-.15.25-.33.43-.53.55,1.06,0,2.04,0,2.94,0l2.21-.33h0c.64,0,.98.37.98,1.02,0,.53-.25,1.07-.73,1.61-.7.65-1.43.97-2.18.97-1.26-.25-2.7-.46-4.34-.63-1.01-.07-1.95-.12-2.82-.17.02.58.03,1.13.03,1.63h3.88l2.23-.15h0c.37,0,.96.15.96,1.17,0,.42-.18.78-.53,1.08-.3.32-.66.5-1.05.5-1.54-.12-3.36-.18-5.42-.18.02.67.06,1.29.1,1.83,0,2.24-.54,3.37-1.61,3.37ZM94.17,21.83v.27c-.03.84-.07,1.76-.12,2.77,0,2.14.81,2.14,1.08,2.14.74,0,1.12-.96,1.12-2.85-.05-.6-.09-1.31-.11-2.09v-.26s.4,0,.4,0c2.12,0,3.99.06,5.55.19.23,0,.46-.12.68-.36.26-.22.38-.45.38-.72,0-.67-.3-.67-.45-.67l-2.23.15h-4.4s0-.25,0-.25c0-.64-.01-1.35-.04-2.13v-.27s.26.01.26.01c.94.05,1.97.11,3.1.18,1.67.17,3.13.38,4.35.63.57,0,1.18-.28,1.77-.82.38-.43.58-.85.58-1.26,0-.44-.18-.52-.45-.52l-2.21.33c-2.03,0-4.41.02-7.19.04h-.25s0-.25,0-.25c0-.81-.01-1.71-.04-2.69v-.26s.25,0,.25,0c.99,0,1.97.01,2.96.04h.28s-.22,1.58-.22,1.58c0,.62.31.71.64.71.27,0,.5-.15.69-.44l.52-1.81h.19c.82,0,1.6.02,2.3.07.24,0,.47-.1.7-.3.25-.19.36-.4.36-.66,0-.6-.21-.6-.3-.6l-2.87.15.37-1.35c-.01-.62-.33-.9-1.04-.9-.75,0-1.08.33-1.08,1.08l-.14,1.17h-3.61v-2.94c0-.11-.01-.23-.03-.37l-.05-.29h.48c2.44,0,4.63.05,6.51.15.21,0,.42-.1.62-.3.31-.22.44-.44.44-.67,0-.6-.25-.6-.38-.6l-2.16.15h-6.21s-5.64.15-5.64.15h0c-.49,0-1.1-.1-1.81-.29-.34,0-.61.12-.82.33-.35.32-.52.62-.52.89,0,.37.11.75.93.75,1.34-.22,2.67-.36,3.94-.41.82-.05,1.71-.09,2.62-.11h.32s-.07.3-.07.3c-.04.2-.07.45-.07.76l.16,2.53-3.97.08-.09-1.27c0-.45-.12-.95-1.08-.95-.64,0-.92.27-.93.89l.42,1.36h-.34c-.48,0-1.04-.1-1.66-.29-.38,0-.66.11-.85.32-.33.33-.49.63-.49.9,0,.37.11.75.89.75.85-.15,1.75-.26,2.64-.33l.21-.02.35,1.31c.12.96.53.96.68.96s.42,0,.45-.61l-.13-1.7h.26c1.1-.06,2.25-.1,3.44-.12h.24s.01.24.01.24c.05.94.07,1.79.07,2.52v.43h-.65c-1.21.03-2.49.06-3.84.08-1.15,0-2.23-.02-3.23-.07-.65-.05-1.2-.07-1.65-.07-.31,0-.65.17-1.02.49-.35.33-.54.64-.54.88,0,.37.11.75.93.75,1.4-.27,2.67-.43,3.75-.48,1.59-.15,3.48-.22,5.62-.22h.59v.26c-.04.61-.06,1.35-.08,2.21v.23s-3.52.12-3.52.12h0c-.53,0-1.17-.05-1.92-.15-.4,0-.73.11-.98.34-.42.45-.51.73-.51.89,0,.38.12.82,1.08.82,1.19-.24,2.39-.39,3.53-.44.66-.07,1.34-.12,1.99-.15h.27ZM90.86,13.77l.09,1.22c-.02.5-.18.78-.38.94,1.08-.02,2.12-.04,3.11-.05h.16c0-.65-.02-1.38-.06-2.2-1,.02-1.98.05-2.93.09ZM96.45,13.63c.02.79.03,1.52.03,2.19.96,0,1.87-.02,2.73-.02-.33-.19-.5-.56-.5-1.09l.15-1.05c-.8-.02-1.61-.03-2.41-.03ZM79.63,27.21c-.72,0-1.58-.38-1.58-2.21.27-3.25.43-6.99.47-11.14-.42.86-.92,1.75-1.48,2.64-1.17,1.64-2.02,2.4-2.68,2.4-.82,0-1.61-.32-2.34-.95-.67-.53-1.01-1.08-1.01-1.63,0-.39.24-.66.65-.73,1.32-.05,2.61-.7,3.89-1.93,1.12-1.05,2.12-2.47,2.98-4.23l-.06-2.19c-1.9.1-3.42.24-4.51.43h-.01c-.86,0-1.31-.46-1.31-1.28,0-.31.14-.63.43-.97.38-.38.86-.57,1.45-.57h3.9c-.07-1.13-.14-2.18-.21-3.16,0-1.11.56-1.71,1.58-1.71.72,0,1.58.33,1.58,1.87-.09.8-.15,1.8-.18,3h1.85c.54,0,1.04.08,1.49.24.47.16.72.51.72,1.01,0,.65-.37,1.02-1.02,1.02-1.13,0-2.16.01-3.08.03-.02.83-.03,1.7-.03,2.62.52.39,1.51,1.33,3.03,2.87.32.38.48.75.48,1.13,0,.92-.56,1.02-.8,1.02-.14,0-.35,0-2.7-1.68,0,3.14.04,6.9.11,11.17,0,1.93-.53,2.91-1.58,2.91ZM79.04,11.42v1.27c-.03,4.64-.19,8.79-.49,12.34,0,1.51.62,1.68,1.08,1.68.71,0,1.08-.81,1.08-2.41-.07-4.49-.11-8.41-.11-11.66v-.49l.4.29c2.25,1.62,2.73,1.85,2.83,1.87.08,0,.28,0,.28-.53,0-.26-.12-.53-.35-.8-1.57-1.59-2.6-2.56-3.05-2.87l-.11-.07v-.13c0-1.06.01-2.06.04-3v-.24s.24,0,.24,0c.98-.02,2.09-.04,3.33-.04.38,0,.52-.15.52-.52,0-.29-.11-.45-.38-.54-.39-.14-.84-.21-1.32-.21h-2.36v-.25c.03-1.33.09-2.43.19-3.27,0-1.19-.58-1.34-1.08-1.34-.75,0-1.08.37-1.08,1.19.07,1.04.15,2.19.22,3.42l.02.27h-4.43c-.45,0-.8.13-1.08.41-.19.23-.3.45-.3.64,0,.55.23.78.78.78,1.12-.19,2.74-.34,4.78-.44h.25s.08,2.81.08,2.81l-.03.06c-.89,1.84-1.94,3.33-3.12,4.43-1.37,1.31-2.77,2.01-4.18,2.06-.19.03-.2.12-.2.23,0,.39.28.8.83,1.24.65.55,1.32.83,2.02.83.27,0,.92-.28,2.27-2.18.79-1.25,1.44-2.47,1.93-3.64l.49-1.17ZM89.7,6.51c-.37,0-1.02-.16-1.13-1.22l-.14-.72c-1.29.07-2.33.18-3.11.32-.82.02-1.22-.39-1.22-1.09,0-.29.14-.59.43-.93.36-.36.79-.53,1.3-.53h2.16l-.16-.73c0-.52.18-1.3,1.39-1.3.92,0,1.43.5,1.43,1.39v.64h1.96c.52,0,.99.08,1.38.24.43.12.67.45.67.93,0,.6-.32.95-.88.95-1.17,0-2.22.01-3.14.03v.94c-.04.96-.61,1.1-.95,1.1ZM88.84,4.05l.23,1.17c.08.71.38.79.64.79.15,0,.42,0,.45-.61v-1.41h.24c.98-.03,2.12-.04,3.4-.04.23,0,.38-.08.38-.45,0-.26-.1-.39-.33-.46-.36-.14-.76-.21-1.22-.21h-2.46v-1.14c0-.63-.28-.89-.93-.89-.79,0-.89.38-.89.75l.28,1.28h-2.78c-.38,0-.68.12-.93.37-.24.29-.3.49-.3.6,0,.43.19.6.67.6.8-.15,1.94-.26,3.34-.33h.22ZM100.44,6.37c-.36,0-.95-.14-.95-1.1l-.06-1.06c-.81.06-1.78.19-2.89.39h-.01c-1.18,0-1.35-.59-1.35-.95,0-.41.17-.79.52-1.14.33-.3.68-.44,1.06-.44h.03s1.36.15,1.36.15h1.22s-.02-.33-.02-.33c0-1.03.51-1.59,1.43-1.59s1.39.5,1.39,1.39l-.07.48c1.66-.02,2.89-.06,3.68-.11h0c.21,0,.67.08.67.8,0,.33-.15.66-.43.98-.4.4-.83.6-1.29.6-.7-.12-1.65-.2-2.92-.25l-.22,1.49c-.27.44-.66.67-1.14.67ZM99.9,3.68l.09,1.58c0,.57.23.61.45.61.29,0,.51-.12.68-.39l.24-1.79h.23c1.41.06,2.45.14,3.17.27.29,0,.59-.15.89-.45.2-.22.3-.43.3-.63,0-.3-.09-.3-.16-.3-.83.05-2.17.09-3.98.11h-.29s.15-1.02.15-1.02c0-.59-.27-.86-.9-.86-.43,0-.93.12-.93,1.08l.05.84h-1.78l-1.38-.15c-.25,0-.48.1-.7.3-.24.24-.36.5-.36.77,0,.14,0,.45.82.45,1.21-.22,2.28-.35,3.16-.41h.25Z"/>
        </g>
        <g>
          <path class="cls-3" d="M117.15.69c.79,0,1.18.39,1.18,1.18l-.26,7.82c2.41-.05,4.17-.11,5.28-.18.27,0,.41.26.41.77,0,.27-.12.53-.37.77-.34.37-.71.55-1.11.55-1.21-.07-2.95-.12-5.24-.15.07.17.11.36.11.55l-.15.77c-.74,2.8-1.53,5.19-2.36,7.16-.66,1.6-1.41,2.9-2.25,3.91-.2.2-.33.3-.41.3-.64,0-1.3-.37-1.99-1.11-.54-.52-.81-1-.81-1.44.05-.34.39-.53,1.03-.55.61-.22,1.08-.47,1.4-.74.74-.59,1.46-1.71,2.18-3.36.64-1.55,1.22-3.38,1.73-5.5h-.77c-.94,0-2.25.15-3.95.44-.81,0-1.22-.31-1.22-.92,0-.34.17-.68.52-1,.3-.32.61-.48.96-.48l1.48.18h3.69l-.15-8.01c0-.66.36-1,1.07-1ZM110.8,4.09c.52.07.91.11,1.18.11.61,0,1.39-.18,2.32-.55.2,0,.3.15.3.44,0,.27-.32.79-.96,1.55-.64.84-1.19,1.25-1.66,1.25-.42,0-.75-.21-1-.63-.32-.49-.48-1.08-.48-1.77,0-.27.1-.41.3-.41ZM118.88,12.17c.81,0,1.22.31,1.22.92,0,1.97-.1,3.78-.3,5.42,0,.3.1.44.3.44,1.77-.76,2.8-1.14,3.1-1.14.47,0,.7.23.7.7,0,.64-.33,1-1,1.07-1.18.25-2.13.57-2.84.96-.57.32-.97.64-1.22.96-.2.27-.37.41-.52.41-.62,0-.92-.33-.92-1,0-.1.1-.3.3-.59.2-.22.32-.58.37-1.07.17-1.01.26-1.94.26-2.8,0-1.11-.1-2.23-.3-3.36,0-.61.28-.92.85-.92ZM120.25,3.16c.07,0,.21.06.41.18.59.66,1.34,1.14,2.25,1.44.37.1.55.26.55.48,0,.34-.15.65-.44.92s-.68.41-1.14.41c-.37,0-.82-.43-1.36-1.29-.47-.79-.7-1.34-.7-1.66s.15-.48.44-.48ZM129.1,4.97l1.29.15h1.96v-.15c0-.89.38-1.33,1.14-1.33.69,0,1.03.44,1.03,1.33v.11c1.62-.02,2.8-.06,3.54-.11.32,0,.48.2.48.59,0,.27-.15.53-.44.77-.32.37-.66.55-1.03.55-.64-.12-1.5-.21-2.58-.26-.02.74-.04,1.46-.04,2.18,1.03,0,2.24.04,3.62.11.32,0,.71-.04,1.18-.11.71,0,1.07.3,1.07.89,0,.02-.04.11-.11.26-.1.25-.18.71-.26,1.4-.07.89-.11,1.84-.11,2.88,0,.69.06,1.62.18,2.8,0,.61-.3.92-.89.92-1.7-.15-3.23-.25-4.61-.3l.04,2.4c.76.05,1.55.11,2.36.18,1.5.12,2.78.18,3.84.18.81,0,1.79-.15,2.95-.44.17,0,.26.26.26.77,0,.69-.34,1.43-1.03,2.21-.49.59-.92.89-1.29.89-.49,0-1.07-.21-1.73-.63-1.06-.59-2.24-1.01-3.54-1.25-.57-.1-1.16-.18-1.77-.26l.07,2.99c0,1.5-.39,2.25-1.18,2.25-.66,0-1-.75-1-2.25v-3.1h-.77c-1.38,0-2.73.07-4.06.22-.79.1-1.99.52-3.62,1.25-.76,0-1.14-.28-1.14-.85,0-.39.16-.72.48-1,.37-.44.9-.66,1.59-.66,3.03-.39,5.32-.59,6.9-.59h.63v-2.32c-1.75,0-2.87.04-3.36.11-.52.05-1.13.16-1.84.33-.57,0-.85-.31-.85-.92.17-1.43.26-2.68.26-3.76s-.09-2.27-.26-3.73c0-.69.34-1.03,1.03-1.03.32,0,.63.02.92.07.32.05.79.07,1.4.07h2.66c0-.74-.01-1.48-.04-2.21-.94.02-2.15.17-3.65.44-.66,0-1-.26-1-.77,0-.32.13-.61.41-.89.27-.27.58-.41.92-.41ZM125.38.69c.47,0,.81.06,1.03.18.34.15.64.22.89.22,1.08-.1,2.51-.15,4.28-.15,3.34,0,6.21.15,8.6.44l1.29-.3c.59,0,.89.26.89.77,0,.17-.06.36-.18.55-.3.74-.53,1.87-.7,3.39,0,.61-.28.92-.85.92-.52,0-.77-.26-.77-.77,0-1.08.06-2.07.18-2.95-1.7-.3-3.82-.44-6.38-.44s-4.92.2-6.79.59c0,1.82-.14,2.9-.41,3.25-.12.32-.43.48-.92.48-.37,0-.55-.16-.55-.48,0-1.84-.15-3.47-.44-4.87,0-.57.28-.85.85-.85ZM132.5,16.33v-2.32c-1.5.05-2.79.12-3.87.22-.02.59-.07,1.13-.15,1.62,0,.42.26.63.77.63.96-.07,2.04-.12,3.25-.15ZM128.73,12.61h3.76v-2.32h-3.1c-.42,0-.63.18-.63.55,0,.61-.01,1.2-.04,1.77ZM134.41,10.32v2.29h3.65v-1.92c0-.2-.1-.3-.3-.3-.91-.02-2.03-.05-3.36-.07ZM134.45,13.97l.04,2.36c.96.02,1.97.07,3.03.15.37,0,.55-.15.55-.44v-2.1c-1.3,0-2.51.01-3.62.04Z"/>
          <path class="cls-3" d="M133.49,27.21c-.83,0-1.25-.84-1.25-2.5v-2.85h-.52c-1.36,0-2.72.07-4.03.22-.75.09-1.94.51-3.54,1.23l-.1.02c-1.21,0-1.39-.69-1.39-1.1,0-.47.19-.87.57-1.19.39-.47.99-.72,1.75-.72,2.99-.39,5.32-.59,6.9-.59h.38v-1.82c-1.58,0-2.62.04-3.07.11-.52.05-1.13.16-1.82.33h-.02c-.75,0-1.14-.42-1.14-1.17.17-1.45.26-2.7.26-3.76s-.09-2.25-.26-3.7c0-.86.45-1.31,1.28-1.31.34,0,.66.03.96.08.3.05.76.07,1.36.07h2.41c0-.57-.01-1.14-.03-1.7-.88.04-2.01.19-3.37.43h-.01c-1.12,0-1.28-.64-1.28-1.02s.16-.74.48-1.06c.32-.32.69-.48,1.1-.48h.03s1.29.15,1.29.15h1.68c.04-1.28.88-1.48,1.39-1.48.46,0,1.23.19,1.28,1.44,1.49-.02,2.59-.06,3.28-.11h0c.24,0,.74.08.74.84,0,.35-.18.67-.53.97-.34.4-.75.61-1.19.61-.61-.11-1.39-.2-2.34-.25-.02.56-.03,1.12-.03,1.66.97,0,2.11.04,3.38.11.29,0,.68-.04,1.13-.11h0c1.18,0,1.35.71,1.35,1.13,0,.07-.02.14-.14.37-.05.13-.14.49-.23,1.32-.07.87-.11,1.83-.11,2.85,0,.68.06,1.62.18,2.78,0,.78-.4,1.2-1.13,1.2-1.59-.14-3.05-.23-4.36-.29l.03,1.9c.69.05,1.41.1,2.14.17,1.47.12,2.76.18,3.81.18.79,0,1.76-.15,2.89-.43h0c.56,0,.56.74.56,1.02,0,.75-.37,1.55-1.09,2.38-.54.65-1.03.97-1.48.97-.54,0-1.17-.22-1.87-.67-1.02-.57-2.19-.98-3.45-1.22-.47-.08-.96-.16-1.47-.22l.07,2.7c0,1.67-.48,2.51-1.43,2.51ZM131.72,21.36h1.02v3.35c0,.91.13,2,.75,2s.93-.67.93-2l-.08-3.27.29.03c.61.07,1.21.16,1.78.26,1.33.25,2.54.68,3.62,1.28.63.4,1.17.6,1.61.6.2,0,.55-.14,1.1-.8.65-.74.97-1.43.97-2.05,0-.31-.03-.45-.06-.51-1.09.28-2.09.43-2.9.43-1.07,0-2.37-.06-3.86-.19-.81-.07-1.6-.13-2.36-.18l-.23-.02-.04-2.89h.26c1.39.06,2.94.16,4.62.31.43,0,.61-.2.61-.67-.12-1.15-.18-2.1-.18-2.8,0-1.03.04-2.01.11-2.9.08-.73.17-1.21.28-1.47.06-.12.09-.18.1-.22,0-.26-.1-.58-.83-.58-.44.07-.85.11-1.18.11-1.38-.07-2.6-.11-3.62-.11h-.25v-.25c0-.72.01-1.44.04-2.18v-.25s.26.01.26.01c1.11.05,1.97.14,2.62.26.25,0,.52-.16.8-.47.26-.22.38-.42.38-.61,0-.34-.13-.34-.23-.34-.73.05-1.89.09-3.54.11h-.25s0-.36,0-.36c0-.96-.42-1.08-.78-1.08-.42,0-.89.12-.89,1.08v.4h-2.21l-1.3-.15c-.27,0-.51.11-.73.33-.22.22-.33.46-.33.71,0,.17,0,.52.75.52,1.46-.27,2.7-.42,3.65-.44h.25s0,.24,0,.24c.02.74.04,1.48.04,2.22v.25h-2.91c-.64,0-1.11-.02-1.44-.08-.28-.05-.58-.07-.88-.07-.55,0-.78.23-.78.78.17,1.43.26,2.7.26,3.73,0,1.08-.09,2.36-.26,3.79,0,.45.18.64.6.64.66-.17,1.29-.28,1.82-.33.5-.07,1.6-.11,3.38-.11h.25v2.82h-.88c-1.55,0-3.86.2-6.87.59-.65,0-1.1.19-1.43.58-.29.25-.42.52-.42.84,0,.29.1.58.84.6,1.64-.74,2.83-1.15,3.64-1.25,1.33-.15,2.71-.22,4.09-.22ZM111.98,24.41c-.71,0-1.44-.4-2.17-1.19-.59-.56-.88-1.09-.88-1.61.07-.51.48-.77,1.23-.8.57-.21,1-.44,1.29-.68.71-.57,1.41-1.66,2.11-3.27.6-1.45,1.15-3.18,1.64-5.15h-.46c-.92,0-2.23.15-3.9.44h0c-1.31,0-1.5-.73-1.5-1.17s.2-.81.6-1.18c.33-.36.71-.55,1.13-.55l1.51.19h3.4s-.14-7.75-.14-7.75c0-.81.47-1.25,1.32-1.25.92,0,1.43.51,1.43,1.43l-.25,7.57c2.27-.05,3.95-.11,5-.18h0c.26,0,.67.13.67,1.02,0,.34-.15.66-.44.95-.39.41-.82.63-1.28.63-1.16-.07-2.81-.12-4.9-.14.02.1.03.2.03.3l-.15.82c-.74,2.81-1.54,5.23-2.38,7.21-.67,1.61-1.44,2.95-2.29,3.97-.28.28-.44.39-.6.39ZM114.75,11.21h1.09l-.08.31c-.52,2.12-1.1,3.98-1.75,5.53-.74,1.71-1.48,2.84-2.25,3.46-.34.29-.82.54-1.47.78h-.08c-.34.03-.76.1-.79.35,0,.33.25.76.74,1.22.64.69,1.25,1.03,1.81,1.04-.02,0,.06-.04.24-.22.8-.97,1.55-2.26,2.2-3.83.83-1.95,1.62-4.35,2.35-7.12l.14-.76c0-.12-.03-.27-.1-.41l-.15-.35h.38c2.27.03,4.03.08,5.25.15.31,0,.61-.16.91-.47.21-.21.3-.4.3-.6,0-.09,0-.52-.16-.52-1.09.07-2.82.13-5.27.18h-.26s.27-8.08.27-8.08c0-.64-.28-.92-.93-.92-.57,0-.82.22-.82.75l.15,8.26h-3.94l-1.51-.19c-.24,0-.5.13-.74.4-.31.29-.45.55-.45.83,0,.31.11.67.97.67,1.66-.29,3-.44,3.95-.44ZM118.33,22.15c-.76,0-1.17-.44-1.17-1.25,0-.11.04-.28.34-.73.18-.21.28-.52.33-.96.17-1.01.26-1.94.26-2.78,0-1.08-.1-2.2-.29-3.31,0-.8.39-1.21,1.09-1.21,1.28,0,1.47.73,1.47,1.17,0,1.97-.1,3.8-.3,5.45,0,.08.02.13.03.15,2.33-1,2.89-1.13,3.12-1.13.6,0,.95.35.95.95,0,.76-.43,1.23-1.22,1.32-1.12.23-2.06.55-2.75.93-.53.3-.91.6-1.14.89-.25.34-.48.5-.71.5ZM118.88,12.42c-.43,0-.6.19-.6.67.19,1.1.3,2.24.3,3.36,0,.87-.09,1.82-.26,2.85-.05.53-.19.93-.43,1.19-.21.32-.23.42-.23.43,0,.52.2.74.67.74,0,0,.1-.01.31-.3.27-.35.71-.7,1.3-1.03.74-.41,1.71-.74,2.91-.99.56-.06.8-.32.8-.83,0-.33-.12-.45-.45-.45-.15,0-.73.15-3,1.12l-.1.02c-.13,0-.54-.05-.54-.69.2-1.66.29-3.48.29-5.42,0-.31-.11-.67-.97-.67ZM137.51,16.73c-1.08-.07-2.1-.12-3.03-.15h-.24s-.04-2.86-.04-2.86h.25c1.11-.03,2.31-.04,3.62-.04h.25v2.35c0,.43-.3.69-.8.69ZM134.73,16.09c.88.03,1.82.07,2.8.14.29,0,.29-.1.29-.19v-1.85c-1.11,0-2.15.01-3.11.03l.03,1.87ZM129.27,16.73c-.94,0-1.04-.61-1.04-.88.07-.52.12-1.06.15-1.63v-.22s.23-.02.23-.02c1.08-.1,2.39-.17,3.89-.22h.26s0,2.82,0,2.82h-.25c-1.18.03-2.27.08-3.23.15h0ZM128.86,14.46c-.03.51-.07.99-.14,1.43,0,.1,0,.34.53.34.89-.07,1.9-.12,3-.14v-1.82c-1.29.05-2.42.11-3.38.19ZM138.32,12.86h-4.15v-2.79h.25c1.33.03,2.45.05,3.36.08.33,0,.54.21.54.55v2.17ZM134.66,12.36h3.15v-1.67s-.05-.05-.05-.05c-.85-.02-1.88-.05-3.1-.07v1.78ZM132.75,12.86h-4.27v-.26c.03-.56.05-1.15.05-1.76,0-.51.32-.8.88-.8h3.35v2.82ZM128.99,12.36h3.25v-1.82h-2.85c-.35,0-.38.14-.38.3,0,.52,0,1.03-.03,1.52ZM125.52,7.14c-.5,0-.8-.27-.8-.73,0-1.82-.15-3.44-.44-4.82,0-.76.38-1.15,1.09-1.15.52,0,.89.07,1.15.22.29.12.55.19.76.19,1.07-.1,2.52-.15,4.28-.15,3.32,0,6.21.15,8.58.44l1.25-.29h.02c1.03,0,1.18.64,1.18,1.02,0,.22-.07.45-.22.69-.27.68-.5,1.8-.66,3.29,0,.73-.39,1.14-1.1,1.14-.65,0-1.02-.37-1.02-1.02,0-.99.05-1.92.16-2.74-1.64-.27-3.69-.4-6.1-.4s-4.73.18-6.54.54c-.01,2.26-.25,2.9-.44,3.17-.12.28-.42.61-1.14.61ZM125.38.94c-.43,0-.6.17-.6.6.29,1.36.44,3.02.44,4.87,0,.11,0,.23.3.23.57,0,.66-.24.69-.32l.04-.06c.13-.17.35-.79.35-3.09v-.2l.2-.04c1.88-.4,4.18-.6,6.84-.6s4.72.15,6.42.45l.24.04-.03.24c-.12.87-.18,1.85-.18,2.92,0,.38.15.52.52.52.43,0,.6-.19.6-.67.17-1.56.42-2.73.72-3.49.12-.2.17-.34.17-.46,0-.27-.08-.52-.64-.52l-1.28.3h-.04c-2.36-.3-5.24-.45-8.56-.45-1.75,0-3.18.05-4.26.15h0c-.3,0-.62-.08-1-.24-.15-.08-.41-.16-.93-.16ZM111.98,7.14c-.51,0-.92-.25-1.21-.75-.34-.52-.51-1.16-.51-1.9,0-.61.42-.66.54-.66h.04c.5.07.89.11,1.15.11.58,0,1.33-.18,2.23-.54l.09-.02c.13,0,.55.05.55.69,0,.23-.12.63-1.02,1.71-.69.9-1.3,1.34-1.85,1.34ZM110.78,4.34s-.02.04-.02.15c0,.64.15,1.19.44,1.63.21.35.46.51.79.51.26,0,.73-.2,1.46-1.16.84-1.01.91-1.32.91-1.4,0-.11-.02-.16-.03-.18-.93.36-1.72.54-2.34.54-.28,0-.67-.04-1.19-.11,0,0,0,0-.01,0ZM121.87,6.85c-.47,0-.97-.45-1.58-1.41-.5-.85-.74-1.42-.74-1.79,0-.46.26-.73.69-.73.13,0,.29.07.54.22l.05.05c.56.63,1.28,1.09,2.14,1.37.6.16.73.48.73.72,0,.42-.18.79-.52,1.11-.34.31-.78.47-1.31.47ZM120.24,3.41c-.11,0-.18.02-.18.23,0,.15.09.56.67,1.53.66,1.05,1.02,1.17,1.15,1.17.41,0,.73-.11.97-.34.24-.22.36-.46.36-.74,0-.13-.26-.21-.37-.24-.95-.31-1.73-.81-2.35-1.49-.17-.1-.24-.12-.25-.13Z"/>
        </g>
        <g>
          <path class="cls-3" d="M167.47,2.46h.04c0-.27-.01-.53-.04-.77,0-.96.39-1.44,1.18-1.44s1.14.48,1.14,1.44c0,.32-.01.61-.04.89l3.91.15c.34,0,.89-.09,1.62-.26.89,0,1.33.34,1.33,1.03-.15.81-.26,1.64-.33,2.47h1.96l2.03-.3c.39,0,.59.2.59.59,0,.47-.22.92-.66,1.36-.57.59-1.17.89-1.81.89-.69-.12-1.46-.23-2.32-.33-.05.74-.07,1.48-.07,2.21-.02.81-.41,1.22-1.14,1.22-1.35-.17-3.03-.27-5.02-.3l.11,1.88c2.56-.02,4.43-.06,5.61-.11.3,0,.44.18.44.55,0,.3-.14.57-.41.81-.32.37-.68.55-1.07.55-1.11-.12-2.62-.21-4.54-.26l.07,1.88c3.52-.05,6.1-.1,7.75-.15.3,0,.44.23.44.7,0,.3-.14.57-.41.81-.34.34-.7.52-1.07.52-1.65-.05-3.87-.09-6.68-.11l.04.89c0,1.2-.26,1.93-.77,2.18.47.07.86.13,1.18.18,3.25.49,5.87.74,7.86.74.81,0,1.57-.07,2.29-.22.3-.07.52-.11.66-.11.27,0,.41.21.41.63,0,.69-.42,1.51-1.25,2.47-.94.98-1.68,1.48-2.25,1.48-.62,0-1.25-.12-1.92-.37-3.81-1.28-10.88-3.12-21.21-5.53-.22.49-.44.95-.66,1.36-.69,1.35-1.38,2.34-2.07,2.95-.54.49-.97.74-1.29.74-.79,0-1.59-.21-2.4-.63-.69-.42-1.03-.8-1.03-1.14,0-.39.26-.65.77-.77,1.11-.44,1.93-.89,2.47-1.33.59-.39,1.12-.98,1.59-1.77-1.23-.22-2.24-.36-3.03-.41-.89-.05-1.33-.5-1.33-1.36,0-.37.38-.55,1.14-.55.25,0,.66.05,1.25.15,1.01.2,1.96.38,2.84.55.59-1.23,1.24-3.04,1.96-5.42,0-.32-.1-.48-.3-.48-1.67,0-2.74.09-3.21.26-.34.15-.65.22-.92.22-.66,0-1-.26-1-.77,0-.25.12-.5.37-.77.27-.27.61-.69,1.03-1.25,1.13-1.57,2.37-3.3,3.73-5.16,0-.22-.09-.33-.26-.33-.89,0-1.83.04-2.84.11-.59.02-1.17.15-1.73.37-.91,0-1.36-.31-1.36-.92,0-.39.18-.75.55-1.07.52-.27.87-.41,1.07-.41,2.02,0,3.69.1,5.02.3.42,0,1.01-.1,1.77-.3.98,0,1.48.31,1.48.92,0,.37-.22.79-.66,1.25-.86.86-2.36,2.74-4.5,5.64,0,.1.1.15.3.15l2.66.15c.44-.2.8-.3,1.07-.3.47,0,.7.31.7.92,0,.22-.07.5-.22.85-.39.86-.8,1.97-1.22,3.32-.32,1.18-.66,2.25-1.03,3.21,5.58,1.11,9.69,1.87,12.32,2.29-.27-.39-.41-1.06-.41-1.99v-.92h-3.5c-.96,0-2.3.15-4.02.44-.76,0-1.14-.28-1.14-.85,0-.37.16-.72.48-1.07.27-.27.6-.41,1-.41l1.44.15h5.72c0-.69-.01-1.33-.04-1.92h-1.55c-.89,0-2.1.13-3.65.41-.71,0-1.07-.23-1.07-.7,0-.34.15-.65.44-.92.27-.27.58-.41.92-.41l1.33.15h3.54v-1.88c-1.82.05-3.44.18-4.87.41-.62,0-.92-.26-.92-.77,0-.61.26-1,.77-1.14,1.16-.22,2.82-.33,4.98-.33h.04v-1.77c-1.57.02-2.99.1-4.24.22-1.03.1-2.24.28-3.62.55-.69,0-1.03-.36-1.03-1.07,0-.27.2-.59.59-.96.37-.34.71-.52,1.03-.52.47,0,1.01.02,1.62.07.96.05,1.98.07,3.06.07.91-.02,1.77-.04,2.58-.04,0-.64-.01-1.27-.04-1.88-1.55.02-3.21.12-4.98.3-.52,0-.77-.23-.77-.7,0-.61.31-.97.92-1.07l4.72-.26ZM169.72,4.2c-.02.66-.04,1.28-.04,1.84,1.65-.02,3.15-.04,4.5-.04.02-.47.04-.87.04-1.22,0-.3-.18-.44-.55-.44-.79-.07-2.1-.12-3.95-.15ZM169.68,7.74l.07,1.81c1.06.05,2.26.1,3.62.15.54,0,.79-.26.74-.77,0-.34.01-.66.04-.96-1.67-.12-3.16-.2-4.46-.22Z"/>
          <path class="cls-3" d="M178.24,26.88c-.64,0-1.31-.13-2.01-.38-3.74-1.26-10.8-3.1-20.98-5.48-.19.42-.39.82-.59,1.19-.7,1.37-1.41,2.39-2.12,3.02-.59.54-1.07.8-1.46.8-.82,0-1.67-.22-2.51-.65-.79-.48-1.17-.92-1.17-1.37,0-.36.17-.83.97-1.02,1.04-.42,1.85-.85,2.37-1.28.49-.33.94-.79,1.34-1.4-1.05-.18-1.93-.29-2.63-.34-1.02-.06-1.56-.62-1.56-1.61,0-.37.24-.8,1.39-.8.26,0,.68.05,1.29.15l2.66.52c.56-1.2,1.18-2.94,1.85-5.18,0-.16-.04-.2-.04-.2-2.04,0-2.83.14-3.13.25-.36.16-.71.24-1.01.24-1.08,0-1.25-.64-1.25-1.02,0-.31.15-.63.43-.94.27-.27.61-.68,1.02-1.23,1.11-1.55,2.34-3.25,3.67-5.09,0-.02,0-.02,0-.02-.87.02-1.82.05-2.82.13-.57.02-1.12.14-1.66.35l-.09.02c-1.33,0-1.61-.64-1.61-1.17,0-.47.22-.89.64-1.26.79-.42,1.08-.47,1.23-.47,2.02,0,3.72.1,5.05.3.36,0,.94-.1,1.67-.29h.06c1.43,0,1.73.63,1.73,1.16,0,.44-.24.91-.73,1.43-.83.83-2.27,2.63-4.3,5.38l2.52.14c.45-.2.82-.29,1.12-.29.35,0,.95.15.95,1.17,0,.26-.08.57-.24.95-.39.85-.8,1.96-1.21,3.3-.29,1.07-.6,2.06-.93,2.95,5.07,1,8.95,1.73,11.55,2.15-.15-.42-.22-.97-.22-1.67v-.67h-3.25c-.94,0-2.28.15-3.98.44h0c-1.25,0-1.43-.69-1.43-1.1,0-.43.18-.85.55-1.24.32-.32.72-.49,1.18-.49l1.46.15h5.44c0-.5-.01-.97-.03-1.42h-1.31c-.87,0-2.09.14-3.61.4h-.01c-1.18,0-1.35-.59-1.35-.95,0-.42.18-.79.52-1.11.31-.31.68-.47,1.09-.47l1.36.15h3.26v-1.38c-1.71.06-3.25.19-4.58.4h0c-1.05,0-1.2-.64-1.2-1.02,0-.92.52-1.26.96-1.38,1.15-.22,2.77-.33,4.84-.34v-1.27c-1.46.03-2.79.1-3.97.22-1.02.1-2.23.28-3.59.55h-.01c-.87,0-1.32-.47-1.32-1.31,0-.35.22-.72.67-1.14.41-.39.82-.58,1.2-.58.48,0,1.03.02,1.64.07.93.05,1.96.07,3.04.07.81-.02,1.59-.03,2.33-.04,0-.47-.01-.93-.03-1.38-1.46.03-3.04.13-4.72.29h0c-.67,0-1.05-.35-1.05-.95,0-.73.4-1.2,1.13-1.32l4.54-.25c0-.18-.02-.35-.03-.51,0-1.42.78-1.71,1.43-1.71.52,0,1.39.22,1.39,1.69,0,.23,0,.44-.02.65l3.65.14c.31,0,.84-.08,1.56-.25h.02c1.41,0,1.62.8,1.62,1.28-.13.75-.24,1.48-.31,2.22h1.68l1.99-.29h0c.57,0,.87.31.87.84s-.25,1.05-.74,1.54c-.61.63-1.28.96-1.98.96-.65-.11-1.34-.21-2.09-.3-.04.64-.06,1.29-.06,1.93-.03.95-.52,1.47-1.39,1.47-1.32-.17-2.9-.26-4.75-.29l.08,1.38c2.42-.02,4.22-.06,5.36-.11h0c.44,0,.7.3.7.8,0,.37-.16.7-.49,1-.35.4-.77.62-1.24.62-1.06-.12-2.49-.2-4.28-.25l.05,1.37c3.47-.05,5.92-.1,7.5-.14h0c.27,0,.7.12.7.95,0,.37-.16.7-.49,1-.38.38-.8.58-1.24.58-1.6-.05-3.76-.08-6.42-.11l.03.62c0,.94-.15,1.61-.45,2.02l.65.1c3.21.49,5.84.73,7.82.73.79,0,1.54-.07,2.24-.22.31-.08.54-.12.71-.12.2,0,.66.09.66.88s-.43,1.62-1.32,2.64c-1,1.05-1.8,1.56-2.44,1.56ZM154.97,20.43l.2.05c10.3,2.4,17.45,4.27,21.23,5.54.64.24,1.26.36,1.84.36.34,0,.97-.24,2.07-1.4.78-.9,1.19-1.68,1.19-2.3,0-.38-.11-.38-.16-.38-.09,0-.26.02-.6.1-.74.15-1.52.23-2.35.23-2,0-4.66-.25-7.9-.74l-1.83-.29h0s-.58-.08-.58-.08c-2.64-.42-6.79-1.19-12.33-2.29l-.29-.06.11-.28c.36-.94.71-2.01,1.03-3.19.42-1.36.83-2.49,1.23-3.36.13-.31.2-.56.2-.74,0-.67-.29-.67-.45-.67-.24,0-.56.09-.97.27l-.06.02-2.72-.15h0c-.49,0-.53-.3-.53-.4v-.08l.05-.07c2.17-2.94,3.65-4.8,4.52-5.67.39-.41.59-.78.59-1.08,0-.18,0-.66-1.19-.67-.76.2-1.37.29-1.8.29-1.34-.2-3.02-.29-5.02-.29-.07,0-.31.04-.95.38-.27.24-.42.53-.42.85,0,.18,0,.66,1.07.67.58-.22,1.17-.34,1.77-.37,1-.07,1.97-.11,2.85-.11.25,0,.51.15.51.58v.08l-.05.07c-1.35,1.87-2.6,3.59-3.73,5.16-.42.57-.78,1.01-1.06,1.29-.19.21-.3.42-.3.6,0,.17,0,.52.75.52.23,0,.51-.07.82-.2.51-.19,1.59-.28,3.31-.28.16,0,.54.07.54.73v.07c-.73,2.39-1.39,4.23-1.98,5.46l-.08.17-3.03-.59c-.57-.09-.98-.14-1.21-.14-.33,0-.89.04-.89.3,0,.73.34,1.07,1.09,1.12.8.05,1.83.19,3.06.41l.35.06-.18.31c-.49.82-1.04,1.44-1.66,1.85-.54.44-1.39.9-2.52,1.35-.55.13-.62.36-.62.54,0,.14.12.45.91.93.76.39,1.53.59,2.27.59.14,0,.48-.09,1.12-.67.66-.59,1.34-1.56,2.01-2.88.22-.42.44-.88.66-1.35l.08-.19ZM164.22,18.11h3.75v1.17c0,.88.12,1.5.36,1.85l.28.4.63-.3c.41-.2.63-.87.63-1.95l-.05-1.14h.26c2.78.03,5.03.06,6.68.11.29,0,.59-.15.89-.44.23-.21.33-.41.33-.63,0-.45-.14-.45-.19-.45-1.61.05-4.14.1-7.74.15h-.24s-.09-2.39-.09-2.39h.27c1.96.06,3.45.14,4.56.27.29,0,.58-.15.85-.47.24-.22.34-.42.34-.65,0-.3-.1-.3-.19-.3-1.17.05-3.06.09-5.6.11h-.24s-.14-2.38-.14-2.38h.27c1.98.03,3.68.13,5.05.3.57,0,.84-.3.86-.98,0-.74.02-1.49.07-2.22l.02-.26.26.03c.86.1,1.65.21,2.34.33.53,0,1.06-.27,1.58-.81.4-.4.59-.8.59-1.19,0-.25-.09-.34-.34-.34l-1.99.29h-2.26s.02-.27.02-.27c.07-.84.19-1.68.33-2.49,0-.32-.13-.74-1.08-.74-.71.17-1.26.26-1.62.26l-4.18-.16.02-.26c.02-.26.04-.55.04-.86,0-1.05-.48-1.19-.89-1.19s-.93.14-.93,1.19c.02.23.04.5.04.77v.25h-.25l-.04-.25v.25s-4.71.26-4.71.26c-.47.08-.69.33-.69.82,0,.27.09.45.52.45,1.76-.17,3.44-.27,4.98-.3h.24s0,.24,0,.24c.02.62.04,1.25.04,1.89v.25h-.25c-.81,0-1.67.01-2.58.04h0c-1.1,0-2.13-.02-3.08-.07-.6-.05-1.14-.07-1.61-.07-.25,0-.54.15-.86.45-.42.4-.51.64-.51.78,0,.57.23.82.78.82,1.33-.27,2.56-.45,3.59-.55,1.26-.12,2.69-.2,4.26-.22h.25s0,2.27,0,2.27h-.25c-2.18,0-3.83.11-4.97.33-.23.07-.57.24-.57.9,0,.27.08.52.67.52,1.38-.22,3.03-.35,4.86-.41h.26s0,2.38,0,2.38h-3.79l-1.36-.15c-.25,0-.49.11-.72.33-.25.23-.37.47-.37.75,0,.14,0,.45.82.45,1.51-.27,2.75-.41,3.65-.41h1.79v.24c.03.59.05,1.24.05,1.93v.25h-5.97l-1.46-.15c-.3,0-.57.11-.79.33-.27.29-.41.59-.41.89s.11.6.89.6c1.69-.29,3.05-.44,4.02-.44ZM173.37,9.94c-1.36-.05-2.57-.1-3.63-.15h-.23s-.09-2.31-.09-2.31h.27c1.3.03,2.8.1,4.48.23l.25.02-.02.25c-.02.29-.04.6-.04.94.03.3-.04.56-.21.74-.17.19-.43.28-.78.28ZM170,9.31c1,.05,2.13.09,3.38.14.13,0,.31-.02.4-.12.07-.07.09-.2.08-.38,0-.27,0-.52.02-.75-1.46-.1-2.78-.17-3.94-.2l.05,1.31ZM169.43,6.3v-.25c0-.57.01-1.19.04-1.85v-.24s.25,0,.25,0c1.84.02,3.17.07,3.97.15h0c.48,0,.78.26.78.69,0,.35-.01.76-.04,1.23v.24h-.25c-1.35,0-2.85.01-4.5.04h-.25ZM169.96,4.45c-.02.47-.02.92-.03,1.34,1.45-.02,2.79-.03,4.01-.03.02-.36.03-.69.03-.97,0-.09,0-.19-.3-.19-.77-.07-2.01-.12-3.71-.14Z"/>
        </g>
        <g>
          <path class="cls-3" d="M186.36,5.27l1.48.15c5.68,0,9.5-.05,11.47-.15.42,0,.63.23.63.7,0,.37-.16.7-.48,1-.34.42-.73.63-1.14.63-1.67-.2-4.39-.3-8.15-.3-1.03,0-2.45.15-4.24.44-.79,0-1.18-.28-1.18-.85,0-.39.17-.77.52-1.14.32-.32.69-.48,1.11-.48ZM187.24,17.33c.34,0,.69.06,1.03.18.37.1.9.15,1.59.15h3.39c.74,0,1.62.05,2.66.15.34,0,.8-.1,1.36-.3.69,0,1.03.38,1.03,1.14,0,.02-.05.11-.15.26-.1.22-.17.64-.22,1.25-.07.84-.11,1.73-.11,2.69,0,.52.05,1.23.15,2.14,0,.79-.33,1.18-1,1.18-1.82-.17-3.44-.26-4.87-.26-1.8,0-2.93.02-3.39.07-.42.02-.91.08-1.48.18-.69,0-1.03-.34-1.03-1.03.17-1.33.26-2.48.26-3.47,0-.91-.09-2.02-.26-3.32,0-.69.34-1.03,1.03-1.03ZM188.09,1.54h8.26c.52,0,.98.09,1.4.26.37.12.55.38.55.77,0,.52-.26.77-.77.77-4.7,0-8.03.2-10,.59-.71,0-1.07-.36-1.07-1.07,0-.25.13-.52.41-.81.34-.34.75-.52,1.22-.52ZM188.38,9.36h7.27c.49,0,.95.09,1.36.26.34.12.52.38.52.77,0,.49-.23.74-.7.74-4.23,0-7.23.21-9,.63-.71,0-1.07-.36-1.07-1.07,0-.22.13-.49.41-.81.34-.34.75-.52,1.22-.52ZM188.38,13.53h7.27c.49,0,.95.07,1.36.22.34.12.52.39.52.81,0,.47-.23.7-.7.7-4.23,0-7.23.2-9,.59-.71,0-1.07-.33-1.07-1,0-.25.13-.53.41-.85.34-.32.75-.48,1.22-.48ZM192.11,24.16c.96,0,2.04.05,3.25.15.37,0,.55-.15.55-.44v-4.02c0-.27-.09-.41-.26-.41-1.43-.1-3.49-.15-6.2-.15-.52,0-.77.23-.77.7,0,1.33-.1,2.56-.3,3.69,0,.42.31.63.92.63.79-.1,1.72-.15,2.8-.15ZM211.15,12.02c.76,0,1.14.46,1.14,1.36-.15.52-.25.98-.3,1.4-.32,1.72-.86,3.25-1.62,4.57-.05.1-.11.2-.18.3.32.17.64.33.96.48,2.53,1.5,5.19,2.3,7.97,2.4.47,0,.7.15.7.44,0,.59-.68,1.37-2.03,2.32-1.13.59-2.13.89-2.99.89-.44,0-.87-.2-1.29-.59-1.45-1.25-3.04-2.56-4.76-3.91-.69.79-1.49,1.46-2.4,2.03-1.8,1.18-3.16,1.77-4.09,1.77-.84,0-1.64-.36-2.4-1.07-.64-.61-.96-1.24-.96-1.88,0-.42.18-.63.55-.63l1.77.33c1.08,0,2.1-.2,3.06-.59,1.01-.39,1.86-.9,2.55-1.51-1.82-1.45-3.74-2.98-5.75-4.57-.47-.3-.7-.58-.7-.85,0-.61.39-.92,1.18-.92,2.34,1.82,4.59,3.39,6.75,4.72.47-.71.86-1.48,1.18-2.29.34-1.03.54-2.03.59-2.99,0-.81.36-1.22,1.07-1.22ZM202.85,1.39c.54,0,.92.06,1.14.18.44.2.81.3,1.11.3.39-.12.93-.18,1.62-.18,2.07,0,3.82.16,5.28.48l1.62-.3c.71,0,1.07.23,1.07.7,0,.27-.07.58-.22.92-.39,1.13-.68,2.9-.85,5.31h.15l2.25-.15c.47,0,.7.28.7.85,0,.37-.15.68-.44.92-.27.27-.57.41-.89.41-1.75-.1-3.81-.15-6.2-.15-1.65,0-3.28.06-4.91.18-1.18.02-2.43.17-3.76.44-.91,0-1.36-.34-1.36-1.03,0-.32.2-.69.59-1.11.32-.25.71-.37,1.18-.37.52.05.96.09,1.33.11-.02-2.51-.21-4.71-.55-6.6,0-.61.38-.92,1.14-.92ZM204.14,8.88l3.91-.07h3.65c0-1.79.05-3.42.15-4.87-.79-.3-1.77-.44-2.95-.44-1.8,0-3.32.2-4.57.59,0,2.36-.06,3.96-.18,4.8Z"/>
          <path class="cls-3" d="M214.8,26.43c-.51,0-1-.22-1.46-.66-1.39-1.2-2.93-2.46-4.56-3.75-.67.73-1.44,1.36-2.3,1.9-1.85,1.22-3.23,1.81-4.23,1.81-.9,0-1.76-.38-2.57-1.14-.69-.66-1.04-1.36-1.04-2.06,0-.56.29-.88.8-.88l1.82.34c1,0,2-.2,2.92-.58.87-.34,1.62-.77,2.25-1.27-1.75-1.39-3.59-2.85-5.52-4.39-.53-.33-.8-.68-.8-1.04,0-.44.19-1.17,1.43-1.17h.09l.07.05c2.24,1.75,4.43,3.29,6.52,4.58.4-.64.75-1.33,1.03-2.04.33-.99.52-1.98.57-2.91,0-.93.47-1.45,1.32-1.45.52,0,1.39.21,1.39,1.62v.07c-.15.5-.25.96-.3,1.36-.33,1.76-.88,3.32-1.65,4.67-.01.03-.03.05-.04.08.23.12.47.24.7.35,2.51,1.48,5.15,2.28,7.87,2.38h0c.82,0,.94.43.94.69,0,.68-.7,1.51-2.13,2.53-1.19.62-2.24.93-3.13.93ZM208.72,21.34l.19.15c1.71,1.34,3.31,2.66,4.77,3.92.38.35.75.53,1.13.53.82,0,1.78-.29,2.87-.86,1.56-1.11,1.89-1.76,1.89-2.1,0-.05,0-.19-.45-.19-2.81-.1-5.54-.92-8.1-2.43-.3-.14-.63-.3-.95-.47l-.26-.14.17-.23c.06-.09.12-.17.16-.26.75-1.31,1.29-2.82,1.6-4.51.05-.4.14-.87.29-1.39-.01-.96-.48-1.08-.89-1.08s-.82.11-.82.97c-.05.99-.25,2.02-.6,3.07-.33.83-.73,1.62-1.21,2.35l-.13.2-.21-.13c-2.14-1.31-4.4-2.89-6.7-4.68-.74.02-.85.35-.85.67,0,.1.08.32.58.64,2.04,1.62,3.96,3.14,5.78,4.59l.23.18-.22.2c-.71.63-1.59,1.16-2.62,1.56-.98.4-2.04.61-3.15.61l-1.82-.34c-.12,0-.26.03-.26.38,0,.57.3,1.14.88,1.7.71.66,1.46,1,2.23,1,.88,0,2.21-.58,3.96-1.73.89-.55,1.68-1.22,2.35-1.98l.16-.18ZM196.98,26.43c-1.82-.17-3.45-.26-4.87-.26-1.78,0-2.91.02-3.37.07-.43.02-.91.09-1.46.18h-.01c-.86,0-1.32-.46-1.32-1.28.17-1.35.26-2.5.26-3.47,0-.89-.09-2-.26-3.29,0-.86.45-1.32,1.28-1.32.37,0,.75.07,1.12.2.33.09.84.13,1.5.13h3.39c.74,0,1.64.05,2.68.15.29,0,.72-.1,1.26-.28h.08c.83-.01,1.28.48,1.28,1.38,0,.09-.04.16-.19.4-.04.1-.12.41-.18,1.14-.07.83-.11,1.73-.11,2.67,0,.51.05,1.22.15,2.11,0,1.27-.78,1.46-1.24,1.46ZM192.11,25.68c1.44,0,3.09.09,4.89.26.35,0,.72-.11.72-.93-.1-.88-.15-1.61-.15-2.14,0-.96.04-1.87.11-2.72.05-.65.13-1.08.24-1.33.07-.1.1-.17.13-.2-.01-.58-.24-.83-.74-.85-.58.2-1.04.29-1.41.29-1.05-.1-1.94-.15-2.66-.15h-3.39c-.71,0-1.26-.05-1.65-.16-.33-.12-.65-.18-.97-.18-.55,0-.78.23-.78.78.17,1.28.26,2.41.26,3.32,0,.99-.09,2.17-.26,3.5,0,.52.24.75.79.75.52-.1,1.03-.16,1.46-.18.46-.05,1.58-.07,3.41-.07ZM195.36,24.55c-2.6-.21-4.55-.18-6.02,0h0c-1.05,0-1.2-.55-1.2-.88.2-1.16.29-2.38.29-3.69,0-.6.37-.95,1.02-.95,2.69,0,4.78.05,6.21.15h0c.1,0,.49.05.49.66v4.02c0,.43-.3.69-.8.69ZM192.11,23.91c.95,0,2.05.05,3.27.15.28,0,.28-.1.28-.19v-4.02c0-.13-.03-.17-.03-.17-1.42-.08-3.5-.13-6.18-.13-.44,0-.52.18-.52.45,0,1.33-.1,2.59-.3,3.73,0,.08,0,.33.68.33.77-.1,1.72-.15,2.8-.15ZM187.87,16.1c-.89,0-1.36-.44-1.36-1.24,0-.31.15-.64.47-1.01.41-.38.88-.57,1.41-.57h7.27c.52,0,1,.08,1.45.24.31.11.68.39.68,1.05,0,.6-.35.95-.95.95-4.19,0-7.2.2-8.95.58h-.02ZM188.38,13.78c-.41,0-.75.14-1.05.41-.21.25-.33.48-.33.67,0,.52.25.75.82.75,1.73-.39,4.78-.59,9-.59.33,0,.45-.12.45-.45,0-.4-.19-.52-.35-.58-.39-.14-.82-.21-1.28-.21h-7.27ZM187.87,12c-.9,0-1.36-.47-1.36-1.31,0-.29.15-.6.47-.97.4-.41.87-.6,1.41-.6h7.27c.52,0,1.01.09,1.46.28.44.16.67.51.67,1.01,0,.63-.35.99-.95.99-4.19,0-7.2.21-8.94.62h-.02ZM188.38,9.61c-.4,0-.74.15-1.04.44-.29.34-.33.54-.33.63,0,.57.25.82.82.82,1.72-.41,4.77-.63,9-.63.28,0,.45-.08.45-.49,0-.29-.11-.45-.35-.54-.4-.16-.83-.24-1.28-.24h-7.27ZM200.56,11.56c-1.44,0-1.65-.8-1.65-1.28,0-.39.22-.81.66-1.28.39-.31.84-.45,1.36-.45.41.04.77.07,1.07.09-.04-2.37-.22-4.49-.55-6.29,0-.48.18-1.22,1.39-1.22.59,0,1.01.07,1.27.22.37.16.69.26.95.26.41-.12.96-.18,1.66-.18,2.05,0,3.82.16,5.28.47l1.57-.29h.01c1.18,0,1.35.59,1.35.95,0,.31-.08.64-.24,1.02-.36,1.05-.64,2.72-.81,4.96l2.11-.14h0c.3,0,.97.11.97,1.1,0,.44-.18.82-.53,1.11-.3.3-.66.46-1.05.46-1.76-.1-3.84-.15-6.2-.15-1.64,0-3.29.06-4.89.18-1.17.02-2.42.17-3.73.44h-.01ZM200.9,9.06c-.38,0-.73.11-1,.32-.31.34-.49.66-.49.91,0,.36.13.78,1.11.78,1.29-.27,2.57-.42,3.76-.44,1.6-.12,3.25-.18,4.91-.18,2.37,0,4.46.05,6.21.15.24,0,.47-.11.69-.33.25-.21.37-.45.37-.75,0-.55-.23-.6-.45-.6l-2.67.15.02-.27c.17-2.42.46-4.23.86-5.38.14-.33.21-.61.21-.84,0-.13,0-.45-.82-.45l-1.63.3h-.05c-1.43-.33-3.19-.48-5.22-.48-.66,0-1.18.06-1.55.17h-.08c-.33.01-.73-.09-1.21-.31-.15-.08-.42-.16-1.04-.16-.79,0-.89.34-.89.67.34,1.86.53,4.09.55,6.6v.27s-.27-.02-.27-.02c-.37-.02-.82-.06-1.34-.11ZM203.85,9.14l.04-.29c.12-.82.18-2.42.18-4.76v-.18l.18-.06c1.27-.4,2.84-.6,4.65-.6,1.21,0,2.23.15,3.04.46l.17.06v.19c-.11,1.44-.16,3.07-.16,4.85v.25h-3.9l-4.2.08ZM204.57,4.27c0,2.02-.05,3.48-.15,4.35l3.62-.07h3.41c0-1.62.05-3.11.14-4.45-.73-.24-1.63-.37-2.69-.37-1.68,0-3.13.18-4.32.53ZM185.94,7.99c-1.28,0-1.46-.69-1.46-1.09,0-.46.2-.9.58-1.31.37-.37.8-.56,1.29-.56h.02s1.48.15,1.48.15c5.62,0,9.47-.05,11.44-.15h0c.57,0,.89.35.89.95,0,.44-.19.84-.56,1.18-.37.45-.82.69-1.31.69-1.68-.2-4.41-.29-8.15-.29-1.02,0-2.43.15-4.2.44h0ZM186.34,5.52c-.35,0-.65.14-.92.41-.29.31-.44.64-.44.97,0,.18,0,.6.93.6,1.76-.29,3.2-.44,4.24-.44,3.76,0,6.51.1,8.18.3.31,0,.62-.18.92-.54.29-.27.42-.54.42-.84,0-.38-.14-.45-.38-.45-1.96.1-5.82.15-11.47.15l-1.49-.15ZM187.57,4.18c-.89,0-1.35-.47-1.35-1.31,0-.31.16-.64.47-.98.4-.4.87-.6,1.4-.6h8.26c.54,0,1.05.09,1.5.28.46.15.71.5.71,1.01,0,.65-.37,1.02-1.02,1.02-4.66,0-8,.2-9.95.59h-.01ZM188.09,1.79c-.4,0-.74.15-1.04.44-.21.23-.33.46-.33.64,0,.57.25.82.82.82,1.93-.39,5.31-.59,10-.59.38,0,.52-.15.52-.52,0-.29-.11-.45-.38-.54-.4-.16-.84-.25-1.32-.25h-8.26Z"/>
        </g>
      </g>
    </g>
  </g>
</svg>